<svg width="375" height="335" viewBox="0 0 375 335" fill="none" xmlns="http://www.w3.org/2000/svg">
<mask id="mask0_2_19" style="mask-type:alpha" maskUnits="userSpaceOnUse" x="0" y="0" width="375" height="335">
<rect width="375" height="334.615" fill="#FFE4C1"/>
</mask>
<g mask="url(#mask0_2_19)">
<path d="M311.312 53H173.957C156.787 53 142.867 66.9197 142.867 84.0905V315.799C142.867 332.97 156.787 346.889 173.957 346.889H311.312C328.483 346.889 342.403 332.97 342.403 315.799V84.0905C342.403 66.9197 328.483 53 311.312 53Z" fill="#D1FAFF"/>
<path d="M282.333 131.59H208.262V272.968H282.333V131.59Z" fill="#4D2B19"/>
<path d="M217.621 125.002C217.61 130.433 220.142 134.634 219.595 140.8C219.144 145.967 216.203 151.87 217.4 157.217C218.703 163.057 221.329 164.769 219.469 171.06C217.81 176.69 216.654 181.879 217.537 188.034C218.419 194.189 223.377 196.721 222.704 203.359C222.2 208.316 219.343 212.287 218.944 217.15C218.251 225.479 224.206 230.447 225.877 238.01C227.137 243.724 223.419 248.03 222.673 253.188C221.854 258.87 225.698 262.105 226.465 267.105C227.946 276.779 213.031 274.604 207.002 273.67C192.591 271.443 201.802 262.651 200.038 254.206C199.46 251.434 196.824 250.247 196.057 247.81C195.227 245.152 196.173 241.707 196.855 238.955C197.979 234.449 200.384 229.796 199.576 224.797C198.777 219.891 194.671 215.984 193.809 211.215C192.864 205.953 195.437 200.953 196.046 195.975C197.338 185.429 190.742 176.123 192.559 165.662C193.305 161.334 196.593 157.899 197.328 153.698C198.221 148.625 195.175 143.562 194.271 138.73C193.599 135.117 193.463 129.445 194.418 125.664C195.521 121.316 198.284 118.963 197.969 114.058C197.296 103.575 204.05 89.6894 215.079 84.9208C215.079 84.9208 217.663 99.4892 217.6 124.992L217.621 125.002Z" fill="#88523B"/>
<path d="M222.841 138.976L227.484 151.013C227.484 151.013 227.852 153.114 231.475 153.04L239.952 153.765C239.952 153.765 242.63 152.736 240.256 150.813L231.391 149.501L239.7 149.091L246.285 147.893C246.285 147.893 247.598 147.421 247.136 146.213C247.136 146.213 247 144.784 245.34 145.036L239.899 145.856L231.15 146.076L243.817 143.902C243.817 143.902 245.267 143.871 245.161 142.39C245.161 142.39 245.067 141.224 243.26 141.465L230.74 143.167L240.151 140.688C240.151 140.688 241.643 139.407 239.164 138.398L231.717 139.638C231.717 139.638 231.937 134.281 226.528 133.567" fill="#F8BFA2"/>
<path d="M137.311 147.443L138.004 153.577C140.441 167.778 154.421 161.276 154.421 161.276L223.839 141.561L226.549 133.578L146.228 139.534C146.228 139.534 136.492 139.786 137.311 147.453V147.443Z" fill="#F8BFA2"/>
<path d="M160.944 143.353L220.194 214.451C231.79 231.835 218.314 238.788 218.314 238.788C211.088 245.689 201.225 234.093 201.225 234.093L141.386 160.978C141.386 160.978 155.093 140.916 160.944 143.353Z" fill="#F8BFA2"/>
<path d="M267.124 114.962C271.85 123.722 268.195 131.327 268.184 140.328C268.163 149.824 274.802 157.208 271.483 166.755C269.76 171.702 268.174 174.643 268.184 180C268.184 184.632 269.602 188.802 269.77 193.182C270.149 203.308 263.248 208.78 267.67 219.073C271.955 229.052 268.153 237.234 270.296 247.223C271.577 253.178 275.968 253.893 274.529 260.815C273.583 265.342 270.023 269.701 275.726 272.831C279.161 274.721 284.349 272.831 288.288 273.471C293.477 274.301 293.54 276.034 297.741 271.917C301.523 268.209 302.132 266.654 301.586 261.35C301.145 257.023 302.342 252.643 301.596 248.672C300.766 244.219 298.057 240.795 297.762 235.984C297.489 231.489 299.411 227.571 298.277 223.317C297.006 218.58 294.475 215.933 295.651 210.587C296.649 206.049 298.225 203.444 297.237 198.455C296.344 193.938 294.548 189.18 294.055 184.727C293.529 180.032 295.714 175.767 295.021 170.978C294.296 165.978 293.708 163.363 294.716 158.289C295.903 152.344 294.317 150.79 292.889 145.212C291.481 139.709 295.147 135.57 294.601 130.287C294.076 125.182 292.048 122.441 292.605 117.073C293.487 108.513 288.75 98.6923 284.696 91.0562C282.763 87.4115 279.896 83.9243 276.766 81.0148C273.069 77.5696 271.241 78.0843 266.977 81.519C263.384 84.4074 254.383 93.0939 254.068 97.6629C253.574 104.564 264.214 109.553 267.134 114.962H267.124Z" fill="#88523B"/>
<path d="M258.206 211.458H228.428L233.89 173.562H251.883L258.206 211.458Z" fill="#F8BFA2"/>
<g style="mix-blend-mode:multiply">
<path d="M240.729 188.984C244.342 189.782 246.936 187.975 250.266 187.04C251.631 186.662 252.997 186.935 254.247 187.555L251.915 173.554H233.922L232.389 184.215C234.679 186.358 237.693 188.311 240.729 188.984Z" fill="#FADED3"/>
</g>
<path d="M280.012 136.914C280.012 163.205 258.805 181.744 243.586 184.527C228.996 183.12 207.149 163.215 207.149 136.914C207.149 110.614 221.245 89.3018 243.586 89.3018C265.927 89.3018 280.012 110.624 280.012 136.914Z" fill="#F8BFA2"/>
<path d="M208.262 136.861H209.785C209.764 97.5782 231.601 97.074 231.601 97.074C231.601 97.074 245.508 117.787 271.241 120.56C271.241 120.56 280.085 122.724 278.836 136.903H280.653C280.653 136.903 280.453 133.122 285.264 134.614C285.138 134.572 285.673 131.547 285.684 131.41C286.514 124.877 286.451 118.228 286.388 111.653C286.335 106.737 285.768 101.916 284.518 97.2631C283.541 93.5868 282.134 90.0156 280.253 86.5915C271.914 71.3928 247.524 63.9668 232.063 71.876C230.015 72.9264 228.072 74.2813 226.465 75.9304C226.202 76.193 225.078 77.9891 224.763 78.0521C224.711 78.0626 201.918 80.0057 200.237 107.935V136.903C200.237 136.903 200.962 133.605 204.859 133.112C204.859 133.112 208 132.786 208.283 136.861H208.262Z" fill="#88523B"/>
<path d="M288.415 231.342C292.196 225.261 289.959 221.259 289.959 221.259C289.959 221.259 293.677 214.169 286.041 209.379L251.516 200.588H235.12L200.595 209.379C192.969 214.159 196.677 222.309 196.677 222.309C196.677 222.309 196.929 225.786 199.093 231.489C199.093 231.489 206.456 239.955 207.411 242.865C207.411 242.865 199.964 257.57 209.754 267.138L215.195 294.416C215.195 294.416 216.518 301.611 213.01 308.449C213.01 308.449 202.286 328.742 199.324 343.3H287.322C284.36 328.742 273.636 308.449 273.636 308.449C270.128 301.611 271.452 294.416 271.452 294.416L276.892 267.138C286.682 257.57 279.235 242.865 279.235 242.865C281.367 239.546 288.425 231.332 288.425 231.332L288.415 231.342Z" fill="#F8BFA2"/>
<g style="mix-blend-mode:multiply" opacity="0.6">
<path d="M260.475 270.226C246.715 263.199 245.287 254.008 246.043 246.141C244.31 247.223 243.669 248.536 241.747 244.524C243.071 256.088 241.464 257.369 239.153 259.806C236.758 262.338 232.798 266.739 229.584 268.083C225.614 269.743 221.433 271.161 217.085 270.719C214.385 270.446 212.159 268.419 209.785 267.327L212.274 279.805C215.635 280.194 219.007 280.299 222.263 279.08C226.212 277.599 229.878 275.509 233.019 272.673C236.201 269.806 239.825 263.661 244.825 265.026C246.957 265.615 248.617 267.978 249.908 269.585C252.093 272.305 254.362 274.784 257.303 276.727C260.748 278.996 264.582 280.981 268.699 281.643C270.548 281.937 272.281 281.885 273.993 281.643L276.356 269.795C271.609 272.494 265.832 272.936 260.475 270.205V270.226Z" fill="#FADED3"/>
</g>
<path d="M284.224 150.665C284.224 152.052 283.1 153.176 281.724 153.176C280.349 153.176 279.214 152.052 279.214 150.665C279.214 149.279 280.338 148.166 281.724 148.166C283.111 148.166 284.224 149.289 284.224 150.665Z" fill="white"/>
<path d="M282.313 152.01C281.22 152.01 280.328 151.128 280.328 150.025C280.328 149.142 280.916 148.418 281.714 148.166C280.328 148.166 279.204 149.289 279.204 150.665C279.204 152.041 280.328 153.176 281.714 153.176C283.1 153.176 284.214 152.052 284.214 150.665C284.214 150.602 284.203 150.55 284.193 150.487C283.983 151.348 283.237 151.999 282.302 151.999L282.313 152.01Z" fill="#E6E7E8"/>
<path d="M207.937 150.665C207.937 152.052 206.813 153.176 205.437 153.176C204.061 153.176 202.927 152.052 202.927 150.665C202.927 149.279 204.051 148.165 205.437 148.165C206.824 148.165 207.937 149.289 207.937 150.665Z" fill="white"/>
<path d="M206.036 152.01C204.943 152.01 204.051 151.127 204.051 150.024C204.051 149.142 204.639 148.417 205.437 148.165C204.051 148.165 202.927 149.289 202.927 150.665C202.927 152.041 204.051 153.176 205.437 153.176C206.824 153.176 207.937 152.052 207.937 150.665C207.937 150.602 207.926 150.55 207.916 150.487C207.695 151.348 206.96 151.999 206.025 151.999L206.036 152.01Z" fill="#E6E7E8"/>
<path d="M207.401 242.863C207.401 242.863 207.054 243.756 206.624 245.353C206.204 246.949 205.668 249.25 205.489 252.033C205.416 253.419 205.405 254.921 205.615 256.476C205.836 258.02 206.183 259.627 206.865 261.171C207.538 262.705 208.441 264.186 209.607 265.499L210.531 266.465C210.804 266.727 211.161 267.032 211.508 267.284C212.201 267.83 212.957 268.313 213.745 268.744C216.886 270.446 220.572 270.992 223.871 270.267C225.52 269.921 227.085 269.353 228.471 268.618C229.858 267.883 231.16 267.106 232.263 266.244C233.387 265.404 234.374 264.585 235.214 263.797C236.076 263.041 236.758 262.305 237.357 261.717C238.492 260.509 239.143 259.816 239.143 259.816C239.143 259.816 239.006 260.016 238.754 260.383C238.502 260.751 238.145 261.308 237.651 261.969C237.126 262.621 236.548 263.461 235.75 264.312C235.361 264.753 234.962 265.225 234.479 265.677C234.017 266.15 233.534 266.643 232.977 267.116C231.906 268.093 230.635 269.049 229.185 269.921C227.736 270.792 226.076 271.528 224.259 272C222.442 272.473 220.457 272.599 218.482 272.378C216.497 272.147 214.554 271.496 212.768 270.572C211.876 270.11 211.025 269.563 210.227 268.954C209.817 268.639 209.449 268.334 209.05 267.946L208.042 266.864C206.75 265.362 205.72 263.66 205.059 261.896C203.714 258.346 203.714 254.764 204.176 251.896C204.639 249.008 205.489 246.729 206.172 245.206C206.855 243.672 207.391 242.874 207.391 242.874L207.401 242.863Z" fill="#EBA98C"/>
<path d="M279.235 242.863C279.235 242.863 279.781 243.651 280.495 245.174C281.209 246.687 282.113 248.945 282.638 251.823C283.153 254.68 283.247 258.262 281.934 261.843C281.293 263.618 280.264 265.33 278.983 266.843C278.657 267.211 278.3 267.589 277.974 267.925C277.575 268.324 277.207 268.629 276.798 268.944C276 269.553 275.149 270.099 274.256 270.561C272.47 271.486 270.527 272.147 268.542 272.378C266.557 272.599 264.572 272.473 262.755 272C260.938 271.528 259.278 270.792 257.828 269.921C256.389 269.049 255.108 268.093 254.037 267.116C253.48 266.654 252.997 266.15 252.535 265.677C252.062 265.215 251.652 264.742 251.264 264.312C250.465 263.45 249.888 262.61 249.363 261.959C248.869 261.287 248.512 260.73 248.26 260.373C248.008 260.005 247.871 259.806 247.871 259.806C247.871 259.806 248.522 260.499 249.657 261.707C250.255 262.284 250.938 263.02 251.799 263.786C252.629 264.574 253.627 265.404 254.751 266.244C255.854 267.106 257.156 267.883 258.543 268.618C259.94 269.353 261.505 269.92 263.154 270.257C266.452 270.981 270.139 270.435 273.279 268.723C274.067 268.303 274.813 267.809 275.506 267.263C275.853 267.001 276.21 266.706 276.483 266.444L277.407 265.478C278.573 264.165 279.455 262.673 280.117 261.14C280.768 259.596 281.094 257.978 281.293 256.434C281.482 254.879 281.43 253.377 281.335 251.991C281.104 249.218 280.516 246.918 280.064 245.332C279.592 243.746 279.235 242.863 279.235 242.863Z" fill="#EBA98C"/>
<path d="M222.683 257.715C222.683 259.763 221.087 261.433 219.123 261.433C217.158 261.433 215.562 259.774 215.562 257.715C215.562 255.657 217.158 253.997 219.123 253.997C221.087 253.997 222.683 255.657 222.683 257.715Z" fill="#EBA98C"/>
<path d="M220.498 257.715C220.498 258.482 219.879 259.091 219.122 259.091C218.366 259.091 217.746 258.471 217.746 257.715C217.746 256.958 218.366 256.339 219.122 256.339C219.879 256.339 220.498 256.958 220.498 257.715Z" fill="#DFA186"/>
<path d="M270.936 257.715C270.936 259.763 269.34 261.433 267.376 261.433C265.411 261.433 263.815 259.774 263.815 257.715C263.815 255.657 265.411 253.997 267.376 253.997C269.34 253.997 270.936 255.657 270.936 257.715Z" fill="#EBA98C"/>
<path d="M268.751 257.715C268.751 258.482 268.132 259.091 267.375 259.091C266.619 259.091 266 258.471 266 257.715C266 256.958 266.619 256.339 267.375 256.339C268.132 256.339 268.751 256.958 268.751 257.715Z" fill="#DFA186"/>
<path d="M246.043 311.704C246.043 313.405 245.108 314.771 243.953 314.771C242.798 314.771 241.873 313.395 241.873 311.704C241.873 310.013 242.808 308.637 243.953 308.637C245.098 308.637 246.043 310.013 246.043 311.704Z" fill="#EBA98C"/>
<path d="M242.598 267.076C242.598 276.613 242.84 286.15 242.945 295.687C242.976 298.219 242.997 300.75 242.997 303.282C242.997 303.954 244.048 303.954 244.048 303.282C244.048 293.744 243.806 284.207 243.701 274.67C243.67 272.139 243.649 269.607 243.649 267.076C243.649 266.404 242.598 266.404 242.598 267.076Z" fill="#EBA98C"/>
<path d="M211.035 209.568C211.035 209.568 211.108 209.473 211.255 209.295C211.413 209.127 211.655 208.875 212.022 208.644C212.747 208.139 214.028 207.751 215.541 207.782C217.053 207.782 218.776 208.097 220.541 208.539C221.423 208.759 222.337 208.99 223.25 209.242C224.164 209.484 225.099 209.715 226.034 209.957C227.914 210.471 229.784 211.07 231.485 211.763C233.187 212.456 234.741 213.234 235.97 214.074C237.21 214.904 238.113 215.828 238.502 216.637C238.712 217.036 238.754 217.383 238.775 217.614C238.785 217.845 238.775 217.96 238.775 217.96C238.775 217.96 238.775 217.834 238.701 217.624C238.638 217.414 238.502 217.109 238.25 216.794C237.756 216.143 236.79 215.46 235.529 214.83C234.269 214.2 232.714 213.601 231.023 213.045C229.322 212.488 227.494 211.942 225.645 211.469C223.786 211.007 221.885 210.44 220.183 209.894C218.471 209.368 216.875 208.906 215.488 208.707C214.102 208.497 212.946 208.623 212.18 208.938C211.791 209.085 211.518 209.253 211.329 209.368C211.14 209.505 211.045 209.568 211.045 209.568H211.035Z" fill="#EBA98C"/>
<path d="M274.455 209.568C274.455 209.568 274.361 209.494 274.172 209.368C273.983 209.242 273.699 209.074 273.311 208.938C272.544 208.633 271.388 208.507 270.002 208.707C268.615 208.906 267.029 209.368 265.307 209.894C263.605 210.44 261.704 211.007 259.845 211.469C257.996 211.952 256.158 212.488 254.467 213.045C252.776 213.612 251.222 214.2 249.961 214.83C248.701 215.46 247.734 216.143 247.241 216.794C246.989 217.12 246.852 217.414 246.789 217.624C246.726 217.834 246.716 217.96 246.716 217.96C246.716 217.96 246.695 217.845 246.716 217.614C246.726 217.383 246.779 217.025 246.989 216.637C247.377 215.828 248.281 214.893 249.52 214.074C250.749 213.234 252.303 212.456 254.005 211.763C255.707 211.07 257.566 210.471 259.456 209.957C260.391 209.715 261.315 209.473 262.24 209.242C263.154 208.99 264.057 208.759 264.95 208.539C266.725 208.097 268.437 207.782 269.949 207.782C271.462 207.751 272.743 208.139 273.468 208.644C273.846 208.875 274.077 209.137 274.235 209.295C274.382 209.473 274.455 209.568 274.455 209.568Z" fill="#EBA98C"/>
<path d="M286.471 144.996C286.471 147.737 284.255 149.953 281.514 149.953C278.772 149.953 276.556 147.737 276.556 144.996V137.822C276.556 135.08 278.772 132.864 281.514 132.864C284.255 132.864 286.471 135.08 286.471 137.822V144.996Z" fill="#F8BFA2"/>
<path d="M281.514 132.391C280.379 132.391 279.318 132.749 278.447 133.347V134.555C279.245 133.799 280.327 133.326 281.514 133.326C283.992 133.326 285.999 135.343 285.999 137.822V144.996C285.999 147.475 283.982 149.481 281.514 149.481C280.148 149.481 278.877 148.872 278.016 147.811C277.858 147.611 277.554 147.58 277.354 147.737C277.155 147.905 277.123 148.199 277.281 148.399C278.321 149.68 279.854 150.416 281.503 150.416C284.497 150.416 286.923 147.979 286.923 144.996V137.822C286.923 134.828 284.486 132.402 281.503 132.402L281.514 132.391Z" fill="#EBA98C"/>
<path d="M285.253 139.544C285.263 138.179 284.896 136.908 283.688 136.172C283.299 135.931 282.522 135.857 282.06 135.889C279.654 136.004 278.194 140.227 280.663 140.668C281.671 141.508 280.862 142.727 280.862 142.727C280.148 143.787 279.213 145.31 279.623 146.655C279.864 147.453 280.736 147.789 281.513 147.905C282.133 147.999 282.186 147.474 281.681 147.285C281.303 147.138 280.957 146.875 280.684 146.581C280.652 146.539 280.631 146.497 280.6 146.455C280.568 146.424 280.558 146.392 280.526 146.361C280.432 146.161 280.4 145.962 280.432 145.762C281.009 146.119 281.923 146.109 282.28 145.52C282.658 144.88 282.217 143.987 282.291 143.304C282.343 142.811 282.501 142.348 282.679 141.897C283.551 139.786 281.534 139.67 281.534 139.67C281.23 139.723 281.009 139.765 280.82 139.817C279.749 139.365 280.684 137.611 281.261 137.286C281.934 136.897 282.816 136.897 283.383 137.433C283.961 137.979 284.265 138.882 284.307 139.649C284.36 140.605 284.255 141.561 283.971 142.474C283.814 142.989 283.604 143.598 283.446 144.113C283.268 144.701 283.887 144.869 284.066 144.292C284.454 143.052 285.221 141.225 285.242 139.565L285.253 139.544Z" fill="#EBA98C"/>
<path d="M200.7 144.996C200.7 147.737 202.916 149.953 205.657 149.953C208.388 149.953 210.615 147.737 210.615 144.996V137.822C210.615 135.08 208.399 132.864 205.657 132.864C202.916 132.864 200.7 135.08 200.7 137.822V144.996Z" fill="#F8BFA2"/>
<path d="M205.657 132.391C206.792 132.391 207.853 132.749 208.724 133.347V134.555C207.926 133.799 206.844 133.326 205.657 133.326C203.179 133.326 201.162 135.343 201.162 137.822V144.996C201.162 147.475 203.179 149.481 205.657 149.481C207.023 149.481 208.294 148.872 209.155 147.811C209.313 147.611 209.607 147.58 209.806 147.737C210.006 147.905 210.037 148.199 209.88 148.399C208.84 149.68 207.306 150.416 205.657 150.416C202.664 150.416 200.227 147.979 200.227 144.996V137.822C200.227 134.828 202.664 132.402 205.657 132.402V132.391Z" fill="#EBA98C"/>
<path d="M201.908 139.544C201.887 138.179 202.265 136.908 203.473 136.172C203.862 135.931 204.639 135.857 205.101 135.889C207.506 136.004 208.966 140.227 206.498 140.668C205.49 141.508 206.288 142.727 206.288 142.727C207.002 143.787 207.937 145.31 207.527 146.655C207.286 147.453 206.414 147.789 205.637 147.905C205.017 147.999 204.964 147.474 205.469 147.285C205.847 147.138 206.193 146.875 206.466 146.581C206.498 146.539 206.519 146.497 206.55 146.455C206.582 146.424 206.593 146.392 206.624 146.361C206.719 146.161 206.75 145.962 206.719 145.762C206.141 146.119 205.227 146.109 204.87 145.52C204.481 144.88 204.933 143.987 204.859 143.304C204.807 142.811 204.649 142.348 204.471 141.897C203.599 139.786 205.616 139.67 205.616 139.67C205.92 139.723 206.141 139.765 206.33 139.817C207.391 139.365 206.466 137.611 205.889 137.286C205.217 136.897 204.334 136.897 203.767 137.433C203.2 137.979 202.885 138.882 202.843 139.649C202.79 140.605 202.895 141.561 203.179 142.474C203.336 142.989 203.546 143.598 203.704 144.113C203.883 144.701 203.263 144.869 203.074 144.292C202.685 143.052 201.918 141.225 201.897 139.565L201.908 139.544Z" fill="#EBA98C"/>
<path d="M209.785 135.759H208.262C207.317 131.348 203.514 132.451 203.514 132.451V105.288C204.565 80.9517 224.69 76.9604 224.753 76.9499C225.068 76.8869 226.202 75.1013 226.454 74.8282C228.061 73.1791 230.015 71.8136 232.053 70.7738C247.514 62.8646 271.903 70.2906 280.243 85.4893C282.123 88.9239 283.52 92.4951 284.507 96.1609C285.747 100.814 286.324 105.625 286.377 110.551C286.44 117.126 286.513 123.775 285.673 130.308C285.652 130.444 285.127 133.48 285.253 133.511C280.453 132.02 280.642 135.801 280.642 135.801H278.825C280.075 121.621 271.231 119.458 271.231 119.458C245.497 116.685 231.59 95.9718 231.59 95.9718C231.59 95.9718 209.754 96.4655 209.775 135.759H209.785Z" fill="#88523B"/>
<path d="M234.468 126.412C234.468 126.412 227.095 123.923 219.459 127.42C220.961 119.28 235.067 122.62 235.067 122.62C235.067 122.62 236.002 122.841 235.897 124.29C235.897 124.29 235.529 126.801 234.468 126.401V126.412Z" fill="#88523B"/>
<path d="M251.673 126.412C251.673 126.412 260.066 123.923 267.691 127.42C266.189 119.28 251.075 122.62 251.075 122.62C251.075 122.62 250.14 122.841 250.245 124.29C250.245 124.29 250.623 126.801 251.673 126.401V126.412Z" fill="#88523B"/>
<path d="M284.224 149.565C284.224 150.951 283.1 152.075 281.724 152.075C280.348 152.075 279.214 150.951 279.214 149.565C279.214 148.178 280.338 147.054 281.724 147.054C283.111 147.054 284.224 148.178 284.224 149.565Z" fill="white"/>
<path d="M282.323 150.899C281.231 150.899 280.338 150.016 280.338 148.913C280.338 148.031 280.926 147.306 281.724 147.054C280.338 147.054 279.214 148.178 279.214 149.565C279.214 150.951 280.338 152.075 281.724 152.075C283.111 152.075 284.224 150.951 284.224 149.565C284.224 149.502 284.214 149.449 284.203 149.386C283.983 150.247 283.247 150.899 282.313 150.899H282.323Z" fill="#E6E7E8"/>
<path d="M207.947 149.564C207.947 150.951 206.823 152.075 205.437 152.075C204.05 152.075 202.927 150.951 202.927 149.564C202.927 148.178 204.05 147.054 205.437 147.054C206.823 147.054 207.947 148.178 207.947 149.564Z" fill="white"/>
<path d="M206.036 150.898C204.943 150.898 204.05 150.016 204.05 148.913C204.05 148.031 204.639 147.306 205.437 147.054C204.05 147.054 202.927 148.178 202.927 149.564C202.927 150.951 204.05 152.075 205.437 152.075C206.823 152.075 207.947 150.951 207.947 149.564C207.947 149.501 207.937 149.449 207.926 149.386C207.706 150.247 206.97 150.898 206.036 150.898Z" fill="#E6E7E8"/>
<path d="M212.18 323.742C212.821 323.742 213.451 323.847 214.102 323.921C214.428 323.973 214.732 324.057 215.048 324.12C215.363 324.194 215.678 324.267 215.993 324.351C216.308 324.435 216.623 324.498 216.928 324.624L217.831 324.961L219.648 325.664L219.795 325.717L219.921 325.916C220.751 327.187 221.56 328.469 222.337 329.771C222.736 330.412 223.114 331.074 223.492 331.725C223.87 332.376 224.259 333.038 224.616 333.7C226.087 336.357 227.484 339.056 228.65 341.882C226.717 339.508 225.005 336.998 223.366 334.435C222.946 333.805 222.558 333.153 222.169 332.502C221.77 331.851 221.371 331.21 220.993 330.548C220.226 329.246 219.48 327.923 218.755 326.589L219.028 326.841L217.369 325.99L216.539 325.549C216.266 325.381 215.972 325.276 215.688 325.15L214.827 324.771C214.543 324.645 214.249 324.498 213.955 324.393C213.367 324.183 212.779 323.921 212.17 323.732L212.18 323.742Z" fill="#EBA98C"/>
<path d="M274.456 323.743C273.836 323.932 273.248 324.195 272.67 324.405C272.376 324.51 272.092 324.657 271.798 324.783L270.937 325.161C270.653 325.287 270.359 325.392 270.086 325.56L269.256 326.002L267.597 326.852L267.87 326.6C267.145 327.934 266.41 329.258 265.633 330.56C265.255 331.222 264.855 331.863 264.456 332.514C264.057 333.165 263.669 333.816 263.259 334.446C261.62 336.999 259.919 339.52 257.976 341.894C259.142 339.058 260.539 336.358 262.009 333.711C262.366 333.039 262.755 332.388 263.133 331.737C263.511 331.085 263.889 330.424 264.288 329.783C265.066 328.48 265.874 327.199 266.704 325.928L266.83 325.729L266.977 325.676L268.794 324.972L269.698 324.636C269.992 324.51 270.317 324.447 270.632 324.363C270.948 324.279 271.263 324.206 271.578 324.132C271.893 324.069 272.197 323.974 272.523 323.932C273.174 323.859 273.805 323.743 274.445 323.754L274.456 323.743Z" fill="#EBA98C"/>
<path d="M296.849 283.817L276.283 234.86C261.672 219.924 273.625 210.587 273.625 210.587C282.574 204.074 291.292 212.036 291.292 212.036L314.663 272.389C314.663 272.389 314.663 287.126 296.849 283.807V283.817Z" fill="#F8BFA2"/>
<path d="M315.482 284.005L315.661 277.829C315.262 263.428 300.504 267.892 300.504 267.892L243.25 272.903L242.472 281.263L305.536 290.58C305.536 290.58 315.209 291.704 315.482 284.005Z" fill="#F8BFA2"/>
<path d="M243.25 272.904L242.473 281.264C242.473 281.264 223.167 281.611 215.142 272.61C215.142 272.61 213.189 269.374 215.636 269.627C215.636 269.627 226.539 275.298 232.011 273.334C232.011 273.334 230.068 271.402 226.182 268.965C226.182 268.965 225.079 265.121 232.578 268.828C236.391 270.719 238.838 272.357 243.239 272.914L243.25 272.904Z" fill="#F8BFA2"/>
<path d="M300.504 267.895L271.903 270.678L243.291 273.346H243.239H243.197L241.968 273.147C241.558 273.094 241.159 272.979 240.749 272.884C240.34 272.8 239.941 272.685 239.552 272.548C239.153 272.422 238.754 272.296 238.376 272.138C236.832 271.55 235.372 270.783 233.943 270.038L232.861 269.492C232.504 269.302 232.158 269.145 231.779 268.966C231.034 268.62 230.33 268.315 229.584 268.074C229.217 267.937 228.838 267.853 228.471 267.779C228.103 267.716 227.736 267.674 227.41 267.706C227.084 267.748 226.832 267.853 226.727 268.042C226.612 268.21 226.58 268.567 226.654 268.83L226.444 268.557L227.977 269.576C228.481 269.922 229.006 270.237 229.49 270.626C229.973 271.004 230.477 271.361 230.96 271.75C231.433 272.159 231.905 272.527 232.368 272.979L232.987 273.588L232.179 273.798L231.065 274.092C230.687 274.145 230.319 274.176 229.941 274.218C229.563 274.26 229.196 274.218 228.828 274.218C228.45 274.218 228.093 274.176 227.725 274.145C226.99 274.092 226.276 273.935 225.561 273.808C224.858 273.651 224.143 273.483 223.45 273.273C220.667 272.464 217.999 271.382 215.404 270.08L215.593 270.132C215.478 270.132 215.32 270.111 215.226 270.132C215.184 270.143 215.121 270.143 215.089 270.164C215.068 270.185 215.037 270.195 215.016 270.206C214.995 270.237 214.963 270.269 214.942 270.342C214.921 270.426 214.921 270.542 214.942 270.668C215.016 271.193 215.289 271.813 215.593 272.327L215.541 272.254L216.812 273.493C217.211 273.935 217.747 274.229 218.209 274.607L218.923 275.142L219.7 275.594C220.226 275.878 220.709 276.235 221.265 276.476L222.893 277.243C223.45 277.474 224.017 277.674 224.585 277.894C225.141 278.125 225.729 278.294 226.307 278.472C226.885 278.651 227.462 278.84 228.051 278.976L229.815 279.407L231.601 279.764C232.2 279.88 232.798 279.964 233.397 280.069C233.996 280.174 234.605 280.237 235.204 280.321C236.412 280.478 237.619 280.583 238.838 280.667C240.046 280.751 241.275 280.804 242.472 280.793H242.546L274.056 285.614L305.546 290.572L273.972 286.213L242.42 281.707H242.493C241.243 281.728 240.014 281.676 238.785 281.592C237.556 281.518 236.327 281.413 235.099 281.256C234.489 281.182 233.87 281.119 233.26 281.014C232.651 280.909 232.042 280.835 231.433 280.709L229.616 280.352L227.809 279.911C227.2 279.775 226.612 279.585 226.023 279.407C225.435 279.228 224.837 279.06 224.259 278.829C223.681 278.609 223.093 278.399 222.515 278.167L220.824 277.38C220.247 277.138 219.732 276.77 219.186 276.466L218.377 275.993L217.621 275.437C217.127 275.048 216.581 274.733 216.14 274.271L214.774 272.958L214.743 272.926L214.711 272.874C214.522 272.548 214.365 272.243 214.228 271.897C214.091 271.561 213.976 271.204 213.913 270.804C213.892 270.594 213.881 270.374 213.934 270.132C213.986 269.88 214.123 269.618 214.354 269.418C214.47 269.334 214.596 269.271 214.711 269.208C214.827 269.166 214.942 269.145 215.058 269.124C215.289 269.071 215.478 269.113 215.688 269.103H215.762L215.877 269.155C218.387 270.395 221.034 271.498 223.723 272.285C224.395 272.496 225.078 272.653 225.761 272.811C226.444 272.937 227.137 273.084 227.82 273.136C228.166 273.168 228.513 273.22 228.849 273.21C229.185 273.21 229.542 273.241 229.868 273.21C230.204 273.168 230.54 273.147 230.876 273.105L231.832 272.863L231.653 273.682C231.244 273.283 230.761 272.905 230.319 272.517C229.847 272.138 229.364 271.781 228.891 271.414C228.429 271.036 227.914 270.72 227.41 270.374L225.918 269.366L225.75 269.25L225.708 269.092C225.582 268.578 225.593 268.053 225.897 267.527C226.223 267.002 226.811 266.813 227.284 266.761C227.767 266.719 228.208 266.761 228.628 266.845C229.049 266.929 229.469 267.034 229.857 267.181C230.656 267.443 231.433 267.779 232.158 268.116C232.515 268.284 232.903 268.462 233.26 268.651L234.342 269.208C235.781 269.954 237.199 270.71 238.68 271.277C239.048 271.435 239.426 271.55 239.794 271.676C240.172 271.813 240.55 271.918 240.928 272.002C241.317 272.086 241.695 272.212 242.083 272.264L243.26 272.464H243.165L271.808 270.122L300.462 267.895H300.504Z" fill="#EBA98C"/>
<g style="mix-blend-mode:soft-light" opacity="0.55">
<path d="M173.957 53C168.895 53 164.116 54.2184 159.893 56.3611L142.867 87.2521V119.088L179.031 53H173.947H173.957Z" fill="white"/>
</g>
<g style="mix-blend-mode:soft-light" opacity="0.55">
<path d="M195.805 53L142.867 149.822V209.335L228.292 53H195.805Z" fill="white"/>
</g>
<g style="mix-blend-mode:soft-light" opacity="0.55">
<path d="M242.64 53L142.867 238.493V315.809C142.867 324.265 146.249 331.922 151.721 337.531L302.689 53H242.64Z" fill="white"/>
</g>
<g style="mix-blend-mode:soft-light" opacity="0.55">
<path d="M342.403 84.091C342.403 71.3502 334.736 60.4055 323.76 55.6053L166.994 346.102C169.231 346.617 171.563 346.89 173.958 346.89H229.763L342.403 133.941V84.091Z" fill="white"/>
</g>
<g style="mix-blend-mode:soft-light" opacity="0.55">
<path d="M342.403 170.147L247.42 346.891H261.652L342.403 194.988V170.147Z" fill="white"/>
</g>
<g style="mix-blend-mode:soft-light">
<path d="M342.392 316.262L328.905 341.439C336.941 335.914 342.245 326.713 342.392 316.262Z" fill="white"/>
</g>
<g style="mix-blend-mode:soft-light" opacity="0.55">
<path d="M342.403 250.488L290.537 346.89H304.57L342.403 275.602V250.488Z" fill="white"/>
</g>
<path d="M203.21 283.564L203.388 277.388C202.989 262.977 188.232 267.452 188.232 267.452L130.977 272.462L130.2 280.823L193.263 290.15C193.263 290.15 202.937 291.274 203.21 283.575V283.564Z" fill="#F8BFA2"/>
<path d="M130.977 272.461L130.2 280.822C130.2 280.822 110.894 281.169 102.87 272.167C102.87 272.167 100.916 268.932 103.363 269.184C103.363 269.184 114.266 274.856 119.738 272.892C119.738 272.892 117.795 270.959 113.909 268.523C113.909 268.523 112.806 264.689 120.305 268.386C124.118 270.277 126.566 271.905 130.967 272.461H130.977Z" fill="#F8BFA2"/>
<path d="M188.232 267.45L159.63 270.234L131.019 272.902H130.966H130.924L129.695 272.702C129.286 272.65 128.887 272.534 128.477 272.44C128.067 272.345 127.668 272.24 127.279 272.104C126.88 271.978 126.492 271.851 126.103 271.694C124.559 271.106 123.099 270.339 121.671 269.604L120.589 269.058C120.232 268.868 119.885 268.711 119.507 268.532C118.761 268.186 118.057 267.881 117.312 267.64C116.944 267.503 116.566 267.419 116.198 267.345C115.831 267.282 115.463 267.24 115.137 267.272C114.812 267.314 114.56 267.419 114.455 267.608C114.339 267.776 114.308 268.133 114.381 268.396L114.171 268.123L115.705 269.152C116.209 269.499 116.734 269.814 117.217 270.202C117.711 270.581 118.204 270.938 118.688 271.326C119.16 271.736 119.633 272.104 120.095 272.555L120.715 273.164L119.906 273.374L118.793 273.669C118.414 273.721 118.047 273.753 117.669 273.795C117.291 273.837 116.923 273.795 116.555 273.795C116.177 273.795 115.82 273.753 115.452 273.721C114.717 273.669 114.003 273.511 113.289 273.385C112.585 273.227 111.871 273.059 111.178 272.849C108.394 272.041 105.726 270.959 103.132 269.656L103.321 269.709C103.205 269.709 103.048 269.688 102.953 269.709C102.911 269.719 102.848 269.719 102.817 269.74C102.796 269.761 102.764 269.772 102.743 269.782C102.722 269.814 102.691 269.845 102.67 269.919C102.649 270.003 102.649 270.118 102.67 270.244C102.743 270.77 103.016 271.389 103.321 271.904L103.268 271.83L104.539 273.07C104.938 273.511 105.474 273.805 105.936 274.183L106.651 274.719L107.428 275.171C107.953 275.454 108.436 275.811 108.993 276.053L110.621 276.82C111.178 277.051 111.745 277.25 112.312 277.471C112.869 277.702 113.457 277.87 114.035 278.049C114.612 278.227 115.19 278.416 115.778 278.553L117.543 278.994L119.328 279.351C119.927 279.477 120.526 279.551 121.124 279.656C121.723 279.761 122.332 279.824 122.931 279.908C124.139 280.065 125.347 280.17 126.565 280.254C127.773 280.338 129.002 280.391 130.199 280.38H130.273L161.784 285.201L193.273 290.159L161.7 285.8L130.147 281.294H130.22C128.971 281.315 127.742 281.263 126.513 281.179C125.284 281.105 124.055 281 122.826 280.843C122.217 280.769 121.597 280.706 120.988 280.601C120.379 280.496 119.769 280.422 119.16 280.296L117.343 279.939L115.537 279.498C114.927 279.362 114.339 279.172 113.751 278.994C113.163 278.815 112.564 278.647 111.986 278.416C111.409 278.196 110.82 277.986 110.243 277.754L108.552 276.967C107.974 276.725 107.459 276.357 106.913 276.053L106.104 275.58L105.348 275.024C104.854 274.624 104.308 274.32 103.867 273.858L102.502 272.545L102.47 272.513L102.439 272.461C102.25 272.135 102.092 271.83 101.955 271.484C101.819 271.148 101.703 270.791 101.64 270.391C101.619 270.181 101.609 269.961 101.661 269.719C101.714 269.467 101.85 269.205 102.081 269.005C102.197 268.921 102.323 268.858 102.439 268.795C102.554 268.753 102.67 268.732 102.785 268.711C103.016 268.658 103.205 268.7 103.415 268.69H103.489L103.604 268.742C106.115 269.982 108.762 271.085 111.451 271.872C112.123 272.083 112.806 272.24 113.488 272.398C114.171 272.524 114.864 272.671 115.547 272.723C115.894 272.755 116.24 272.807 116.576 272.797C116.912 272.797 117.27 272.828 117.595 272.797C117.931 272.755 118.267 272.734 118.604 272.692L119.559 272.45L119.381 273.269C118.971 272.87 118.488 272.492 118.047 272.104C117.574 271.725 117.091 271.368 116.618 271.001C116.156 270.623 115.642 270.307 115.148 269.961L113.656 268.952L113.488 268.837L113.446 268.679C113.32 268.165 113.331 267.64 113.635 267.114C113.961 266.589 114.549 266.4 115.022 266.348C115.505 266.306 115.946 266.348 116.377 266.432C116.797 266.516 117.217 266.621 117.606 266.768C118.404 267.03 119.181 267.366 119.906 267.703C120.263 267.871 120.652 268.049 121.009 268.238L122.091 268.795C123.53 269.541 124.948 270.297 126.429 270.864C126.796 271.022 127.174 271.137 127.542 271.263C127.92 271.4 128.298 271.505 128.676 271.589C129.065 271.683 129.443 271.799 129.832 271.851L131.008 272.051H130.914L159.557 269.709L188.211 267.482L188.232 267.45Z" fill="#EBA98C"/>
<path d="M184.576 283.375L164.011 234.418C149.4 219.482 161.353 210.144 161.353 210.144C170.302 203.632 179.02 211.594 179.02 211.594L202.391 271.947C202.391 271.947 202.391 286.683 184.576 283.364V283.375Z" fill="#F8BFA2"/>
<path d="M110.579 138.541L115.222 150.578C115.222 150.578 115.59 152.679 119.213 152.606L127.69 153.33C127.69 153.33 130.368 152.301 127.994 150.379L119.129 149.076L127.438 148.667L134.023 147.469C134.023 147.469 135.336 146.997 134.874 145.789C134.874 145.789 134.738 144.36 133.078 144.612L127.637 145.432L118.888 145.652L131.555 143.478C131.555 143.478 133.005 143.446 132.9 141.965C132.9 141.965 132.805 140.789 130.998 141.041L118.478 142.743L127.889 140.264C127.889 140.264 129.381 138.982 126.902 137.964L119.455 139.203C119.455 139.203 119.665 133.846 114.266 133.132" fill="#F8BFA2"/>
<path d="M25.0489 146.996L25.7422 153.13C28.179 167.331 42.1592 160.83 42.1592 160.83L111.577 141.114L114.287 133.132L33.9665 139.077C33.9665 139.077 24.2297 139.329 25.0489 146.996Z" fill="#F8BFA2"/>
<path d="M48.6714 142.92L107.922 214.008C119.518 231.391 106.042 238.345 106.042 238.345C98.8153 245.246 88.9525 233.65 88.9525 233.65L29.1138 160.545C29.1138 160.545 42.8209 140.483 48.6714 142.92Z" fill="#F8BFA2"/>
<path d="M145.945 211.016H116.157L121.619 173.119H139.622L145.945 211.016Z" fill="#F8BFA2"/>
<g style="mix-blend-mode:multiply">
<path d="M128.456 188.55C132.07 189.348 134.664 187.541 137.994 186.607C139.359 186.228 140.725 186.502 141.974 187.132L139.643 173.131H121.65L120.117 183.792C122.406 185.934 125.421 187.888 128.456 188.56V188.55Z" fill="#FADED3"/>
</g>
<path d="M167.739 136.471C167.739 162.761 146.533 181.3 131.313 184.073C116.724 182.665 94.8762 162.761 94.8762 136.471C94.8762 110.181 108.972 88.8583 131.313 88.8583C153.654 88.8583 167.739 110.17 167.739 136.471Z" fill="#F8BFA2"/>
<path d="M95.9897 136.429H97.5127C97.4917 97.1457 119.329 96.6415 119.329 96.6415C119.329 96.6415 133.235 117.355 158.969 120.127C158.969 120.127 167.813 122.291 166.563 136.471H168.38C168.38 136.471 168.181 132.69 172.991 134.181C172.865 134.139 173.401 131.114 173.411 130.978C174.241 124.444 174.178 117.796 174.115 111.22C174.063 106.305 173.495 101.484 172.245 96.8306C171.269 93.1543 169.861 89.5831 167.981 86.159C159.641 70.9603 135.252 63.5343 119.791 71.4435C117.743 72.4939 115.799 73.8488 114.192 75.4979C113.93 75.7605 112.806 77.5566 112.491 77.6196C112.438 77.6301 89.6455 79.5733 87.965 107.502V136.471C87.965 136.471 88.6897 133.173 92.5865 132.679C92.5865 132.679 95.7271 132.354 96.0107 136.429H95.9897Z" fill="#88523B"/>
<path d="M176.153 230.9C179.934 224.818 177.697 220.816 177.697 220.816C177.697 220.816 181.415 213.727 173.779 208.937L139.254 200.145H122.858L88.333 208.937C80.7074 213.716 84.4151 221.867 84.4151 221.867C84.4151 221.867 84.6672 225.343 86.831 231.047C86.831 231.047 94.1939 239.513 95.1498 242.422C95.1498 242.422 87.7028 257.127 97.4921 266.696L102.933 293.974C102.933 293.974 104.256 301.169 100.748 308.006C100.748 308.006 90.024 328.299 87.062 342.857H175.061C172.099 328.31 161.375 308.006 161.375 308.006C157.866 301.169 159.19 293.974 159.19 293.974L164.631 266.696C174.42 257.127 166.973 242.422 166.973 242.422C169.105 239.103 176.164 230.889 176.164 230.889L176.153 230.9Z" fill="#F8BFA2"/>
<g style="mix-blend-mode:multiply">
<path d="M173.779 208.937L139.254 200.145H122.858L88.333 208.937C80.7074 213.716 84.4151 221.867 84.4151 221.867C84.4151 221.867 84.6672 225.343 86.831 231.047C86.831 231.047 94.1939 239.513 95.1498 242.422C95.1498 242.422 87.7028 257.127 97.4921 266.696L102.933 293.974C102.933 293.974 104.256 301.169 100.748 308.006C100.748 308.006 90.024 328.299 87.062 342.857H106.431C104.235 341.124 102.208 339.223 100.664 337.049C96.1266 330.663 97.8492 324.003 100.958 317.26C102.859 313.122 105.79 308.668 105.916 303.994C106.021 300.171 106.315 288.963 106.851 285.161C108.458 273.712 120.904 275.561 130.2 275.582C142.867 275.624 152.268 276.496 162.635 276.611L164.61 266.685C174.399 257.117 166.952 242.412 166.952 242.412C169.084 239.093 176.143 230.879 176.143 230.879C179.924 224.797 177.687 220.795 177.687 220.795C177.687 220.795 181.405 213.706 173.769 208.916L173.779 208.937Z" fill="#FADED3"/>
</g>
<path d="M171.952 150.228C171.952 151.615 170.828 152.739 169.452 152.739C168.076 152.739 166.942 151.615 166.942 150.228C166.942 148.842 168.066 147.729 169.452 147.729C170.839 147.729 171.952 148.852 171.952 150.228Z" fill="white"/>
<path d="M170.051 151.563C168.958 151.563 168.066 150.67 168.066 149.578C168.066 148.695 168.654 147.971 169.452 147.719C168.066 147.719 166.942 148.842 166.942 150.218C166.942 151.594 168.066 152.729 169.452 152.729C170.839 152.729 171.952 151.605 171.952 150.218C171.952 150.155 171.941 150.103 171.931 150.04C171.721 150.901 170.975 151.552 170.04 151.552L170.051 151.563Z" fill="#E6E7E8"/>
<path d="M95.6747 150.229C95.6747 151.616 94.5508 152.74 93.1749 152.74C91.7989 152.74 90.6645 151.616 90.6645 150.229C90.6645 148.843 91.7884 147.73 93.1749 147.73C94.5613 147.73 95.6747 148.853 95.6747 150.229Z" fill="white"/>
<path d="M93.7636 151.563C92.6712 151.563 91.7784 150.67 91.7784 149.578C91.7784 148.695 92.3666 147.971 93.1649 147.719C91.7784 147.719 90.6545 148.843 90.6545 150.219C90.6545 151.594 91.7784 152.729 93.1649 152.729C94.5514 152.729 95.6647 151.605 95.6647 150.219C95.6647 150.155 95.6542 150.103 95.6437 150.04C95.4337 150.901 94.6879 151.552 93.7531 151.552L93.7636 151.563Z" fill="#E6E7E8"/>
<path d="M95.1391 242.433C95.1391 242.433 94.7925 243.325 94.3618 244.922C93.9417 246.518 93.406 248.819 93.2274 251.602C93.1539 252.989 93.1434 254.491 93.3535 256.045C93.5741 257.589 93.9207 259.196 94.6034 260.74C95.2756 262.274 96.1789 263.755 97.3448 265.068L98.2691 266.034C98.5422 266.297 98.8994 266.591 99.246 266.853C99.9392 267.399 100.695 267.893 101.483 268.313C104.624 270.015 108.311 270.561 111.609 269.836C113.258 269.49 114.823 268.933 116.209 268.187C117.596 267.452 118.898 266.675 120.001 265.813C121.114 264.973 122.112 264.154 122.952 263.366C123.814 262.61 124.496 261.875 125.095 261.286C126.23 260.078 126.881 259.385 126.881 259.385C126.881 259.385 126.744 259.585 126.492 259.952C126.24 260.32 125.883 260.877 125.389 261.538C124.864 262.19 124.286 263.03 123.488 263.881C123.1 264.322 122.7 264.795 122.217 265.246C121.755 265.719 121.272 266.213 120.715 266.685C119.644 267.662 118.373 268.618 116.923 269.49C115.474 270.361 113.814 271.097 111.997 271.569C110.18 272.042 108.195 272.168 106.22 271.947C104.235 271.716 102.292 271.065 100.506 270.141C99.6136 269.679 98.7628 269.133 97.9645 268.523C97.5549 268.208 97.1873 267.904 96.7881 267.515L95.7798 266.433C94.4879 264.931 93.4585 263.23 92.7968 261.465C91.4523 257.915 91.4628 254.333 91.9145 251.466C92.3766 248.577 93.2274 246.298 93.9102 244.775C94.5929 243.241 95.1286 242.443 95.1286 242.443L95.1391 242.433Z" fill="#EBA98C"/>
<path d="M166.962 242.431C166.962 242.431 167.508 243.219 168.223 244.742C168.937 246.255 169.84 248.513 170.365 251.391C170.88 254.248 170.975 257.83 169.662 261.411C169.021 263.186 167.992 264.898 166.71 266.411C166.385 266.779 166.027 267.157 165.702 267.493C165.303 267.892 164.935 268.197 164.525 268.512C163.727 269.121 162.876 269.667 161.984 270.129C160.198 271.053 158.255 271.715 156.27 271.946C154.295 272.167 152.31 272.041 150.482 271.568C148.665 271.095 147.005 270.36 145.556 269.488C144.117 268.617 142.836 267.661 141.764 266.684C141.208 266.222 140.724 265.718 140.262 265.245C139.79 264.783 139.38 264.31 138.991 263.88C138.193 263.018 137.615 262.178 137.09 261.527C136.596 260.855 136.239 260.298 135.987 259.941C135.735 259.573 135.599 259.374 135.599 259.374C135.599 259.374 136.25 260.067 137.384 261.275C137.983 261.852 138.666 262.588 139.527 263.354C140.367 264.142 141.355 264.972 142.478 265.802C143.581 266.663 144.884 267.44 146.27 268.176C147.667 268.911 149.232 269.478 150.881 269.814C154.179 270.539 157.866 269.993 161.007 268.281C161.794 267.86 162.54 267.367 163.233 266.821C163.58 266.558 163.937 266.264 164.21 266.001L165.135 265.035C166.3 263.722 167.183 262.231 167.845 260.697C168.496 259.153 168.821 257.535 169.021 255.991C169.21 254.437 169.157 252.935 169.063 251.548C168.832 248.775 168.244 246.475 167.792 244.889C167.319 243.303 166.962 242.421 166.962 242.421V242.431Z" fill="#EBA98C"/>
<path d="M110.411 257.273C110.411 259.321 108.815 260.991 106.851 260.991C104.887 260.991 103.29 259.332 103.29 257.273C103.29 255.214 104.887 253.555 106.851 253.555C108.815 253.555 110.411 255.214 110.411 257.273Z" fill="#EBA98C"/>
<path d="M108.227 257.272C108.227 258.029 107.607 258.648 106.851 258.648C106.094 258.648 105.475 258.029 105.475 257.272C105.475 256.516 106.094 255.896 106.851 255.896C107.607 255.896 108.227 256.516 108.227 257.272Z" fill="#DFA186"/>
<path d="M158.664 257.273C158.664 259.321 157.068 260.991 155.103 260.991C153.139 260.991 151.543 259.332 151.543 257.273C151.543 255.214 153.139 253.555 155.103 253.555C157.068 253.555 158.664 255.214 158.664 257.273Z" fill="#EBA98C"/>
<path d="M156.479 257.272C156.479 258.029 155.86 258.648 155.103 258.648C154.347 258.648 153.727 258.029 153.727 257.272C153.727 256.516 154.347 255.896 155.103 255.896C155.86 255.896 156.479 256.516 156.479 257.272Z" fill="#DFA186"/>
<path d="M130.326 266.641C130.326 273.09 130.399 279.529 130.462 285.978C130.536 293.74 130.62 301.502 130.672 309.264C130.693 312.447 130.725 315.64 130.725 318.822C130.725 319.495 131.775 319.495 131.775 318.822C131.775 312.373 131.702 305.935 131.639 299.485C131.565 291.723 131.481 283.961 131.429 276.199C131.408 273.016 131.376 269.823 131.376 266.641C131.376 265.969 130.326 265.969 130.326 266.641Z" fill="#EBA98C"/>
<path d="M98.7634 209.137C98.7634 209.137 98.837 209.042 98.984 208.864C99.1416 208.696 99.3831 208.444 99.7508 208.213C100.476 207.708 101.757 207.32 103.269 207.351C104.782 207.351 106.494 207.666 108.269 208.108C109.151 208.328 110.065 208.559 110.979 208.811C111.893 209.053 112.828 209.284 113.762 209.526C115.643 210.04 117.512 210.639 119.214 211.332C120.915 212.025 122.47 212.803 123.699 213.643C124.938 214.473 125.842 215.397 126.23 216.206C126.44 216.605 126.482 216.952 126.503 217.183C126.514 217.414 126.503 217.54 126.503 217.54C126.503 217.54 126.503 217.414 126.43 217.204C126.367 216.994 126.23 216.689 125.978 216.374C125.484 215.723 124.518 215.04 123.258 214.41C121.997 213.779 120.443 213.181 118.741 212.624C117.04 212.067 115.212 211.521 113.363 211.049C111.504 210.586 109.603 210.019 107.902 209.473C106.189 208.948 104.593 208.486 103.206 208.286C101.82 208.076 100.665 208.202 99.8978 208.507C99.5092 208.654 99.2361 208.822 99.047 208.937C98.858 209.074 98.7634 209.147 98.7634 209.147V209.137Z" fill="#EBA98C"/>
<path d="M162.183 209.136C162.183 209.136 162.088 209.062 161.899 208.936C161.71 208.81 161.427 208.642 161.038 208.495C160.271 208.19 159.116 208.064 157.729 208.275C156.343 208.474 154.757 208.936 153.034 209.461C151.333 210.008 149.432 210.575 147.572 211.037C145.724 211.52 143.886 212.056 142.195 212.612C140.504 213.18 138.949 213.768 137.689 214.398C136.428 215.028 135.462 215.711 134.968 216.362C134.716 216.688 134.58 216.982 134.517 217.192C134.454 217.402 134.443 217.528 134.443 217.528C134.443 217.528 134.422 217.413 134.443 217.171C134.454 216.94 134.506 216.593 134.716 216.194C135.105 215.385 136.008 214.451 137.248 213.631C138.476 212.791 140.031 212.014 141.733 211.321C143.434 210.627 145.293 210.029 147.184 209.514C149.053 209.031 150.923 208.548 152.667 208.096C154.442 207.665 156.154 207.34 157.666 207.34C159.179 207.308 160.46 207.697 161.185 208.201C161.563 208.432 161.794 208.695 161.952 208.852C162.099 209.031 162.172 209.125 162.172 209.125L162.183 209.136Z" fill="#EBA98C"/>
<path d="M174.199 144.549C174.199 147.29 171.982 149.506 169.241 149.506C166.5 149.506 164.283 147.29 164.283 144.549V137.375C164.283 134.633 166.5 132.417 169.241 132.417C171.982 132.417 174.199 134.633 174.199 137.375V144.549Z" fill="#F8BFA2"/>
<path d="M169.241 131.955C168.107 131.955 167.046 132.312 166.174 132.911V134.119C166.972 133.363 168.054 132.89 169.241 132.89C171.72 132.89 173.726 134.907 173.726 137.375V144.549C173.726 147.028 171.709 149.044 169.241 149.044C167.876 149.044 166.605 148.435 165.743 147.374C165.586 147.175 165.281 147.143 165.082 147.301C164.882 147.469 164.851 147.763 165.008 147.963C166.048 149.244 167.582 149.979 169.231 149.979C172.224 149.979 174.65 147.542 174.65 144.549V137.375C174.65 134.381 172.214 131.955 169.231 131.955H169.241Z" fill="#EBA98C"/>
<path d="M172.991 139.098C173.001 137.732 172.634 136.461 171.426 135.726C171.037 135.485 170.26 135.411 169.798 135.442C167.392 135.558 165.932 139.78 168.401 140.222C169.409 141.062 168.6 142.27 168.6 142.27C167.886 143.331 166.951 144.854 167.361 146.198C167.603 146.996 168.474 147.333 169.252 147.448C169.871 147.543 169.924 147.017 169.42 146.828C169.042 146.681 168.695 146.419 168.422 146.125C168.39 146.083 168.369 146.041 168.338 145.999C168.306 145.967 168.296 145.936 168.264 145.904C168.17 145.704 168.138 145.505 168.17 145.305C168.747 145.662 169.661 145.652 170.018 145.064C170.396 144.423 169.955 143.53 170.029 142.837C170.081 142.354 170.239 141.881 170.417 141.43C171.289 139.318 169.273 139.203 169.273 139.203C168.968 139.245 168.747 139.297 168.558 139.35C167.487 138.898 168.422 137.144 169 136.818C169.672 136.43 170.554 136.43 171.121 136.966C171.699 137.512 172.004 138.415 172.046 139.171C172.098 140.127 171.993 141.093 171.709 141.997C171.552 142.511 171.342 143.121 171.184 143.635C171.006 144.223 171.625 144.392 171.804 143.814C172.193 142.574 172.959 140.747 172.98 139.098H172.991Z" fill="#EBA98C"/>
<path d="M88.4272 144.549C88.4272 147.29 90.6435 149.506 93.3849 149.506C96.1158 149.506 98.3426 147.29 98.3426 144.549V137.375C98.3426 134.633 96.1263 132.417 93.3849 132.417C90.6435 132.417 88.4272 134.633 88.4272 137.375V144.549Z" fill="#F8BFA2"/>
<path d="M93.3851 131.955C94.5195 131.955 95.5804 132.312 96.4522 132.911V134.119C95.6539 133.363 94.572 132.89 93.3851 132.89C90.9063 132.89 88.8896 134.907 88.8896 137.375V144.549C88.8896 147.028 90.9063 149.044 93.3851 149.044C94.7401 149.044 96.0215 148.435 96.8828 147.374C97.0404 147.175 97.3345 147.143 97.534 147.301C97.7336 147.469 97.7651 147.763 97.6076 147.963C96.5677 149.244 95.0342 149.979 93.3851 149.979C90.3916 149.979 87.9548 147.542 87.9548 144.549V137.375C87.9548 134.381 90.3916 131.955 93.3851 131.955Z" fill="#EBA98C"/>
<path d="M89.6355 139.098C89.6145 137.732 89.9926 136.461 91.2005 135.726C91.5891 135.485 92.3664 135.411 92.8286 135.442C95.2339 135.558 96.6939 139.78 94.2255 140.222C93.2172 141.062 94.0155 142.27 94.0155 142.27C94.7297 143.331 95.6645 144.854 95.2549 146.198C95.0133 146.996 94.1415 147.333 93.3642 147.448C92.7445 147.543 92.692 147.017 93.1962 146.828C93.5743 146.681 93.9209 146.419 94.194 146.125C94.2255 146.083 94.2465 146.041 94.278 145.999C94.3096 145.967 94.3201 145.936 94.3516 145.904C94.4461 145.704 94.4776 145.505 94.4461 145.305C93.8684 145.662 92.9546 145.652 92.5975 145.064C92.2088 144.423 92.6605 143.53 92.587 142.837C92.5345 142.354 92.3769 141.881 92.1983 141.43C91.3265 139.318 93.3432 139.203 93.3432 139.203C93.6478 139.245 93.8684 139.297 94.0575 139.35C95.1183 138.898 94.194 137.144 93.6163 136.818C92.9441 136.43 92.0618 136.43 91.4946 136.966C90.9274 137.512 90.6123 138.415 90.5703 139.171C90.5178 140.127 90.6228 141.093 90.9064 141.997C91.064 142.511 91.274 143.121 91.4316 143.635C91.6101 144.223 90.9904 144.392 90.8014 143.814C90.4127 142.574 89.646 140.747 89.625 139.098H89.6355Z" fill="#EBA98C"/>
<path d="M97.5131 135.317H95.99C95.0447 130.905 91.2424 132.008 91.2424 132.008V104.846C92.2928 80.5091 112.418 76.5177 112.481 76.5072C112.796 76.4442 113.93 74.6586 114.182 74.3855C115.789 72.7365 117.743 71.371 119.781 70.3311C135.242 62.422 159.631 69.848 167.971 85.0466C169.851 88.4813 171.248 92.0525 172.235 95.7182C173.475 100.371 174.052 105.182 174.105 110.108C174.168 116.683 174.241 123.332 173.401 129.865C173.38 130.002 172.855 133.037 172.981 133.069C168.181 131.577 168.37 135.359 168.37 135.359H166.553C167.803 121.179 158.959 119.015 158.959 119.015C133.225 116.242 119.318 95.5291 119.318 95.5291C119.318 95.5291 97.4815 96.0228 97.5025 135.317H97.5131Z" fill="#88523B"/>
<path d="M170.061 89.1005H95.99V272.534H170.061V89.1005Z" fill="#88523B"/>
<path d="M105.349 124.559C105.338 129.99 107.869 134.191 107.323 140.357C106.872 145.524 103.931 151.438 105.128 156.774C106.43 162.614 109.056 164.326 107.197 170.617C105.538 176.247 104.382 181.436 105.264 187.591C106.147 193.746 111.104 196.278 110.432 202.916C109.928 207.873 107.071 211.844 106.672 216.707C105.979 225.036 111.934 230.004 113.604 237.567C114.865 243.281 111.146 247.587 110.401 252.745C109.581 258.427 113.426 261.662 114.192 266.662C115.673 276.336 100.758 274.161 94.7294 273.237C80.3186 271.01 89.5302 262.219 87.7656 253.774C87.1879 251.001 84.5515 249.814 83.7847 247.377C82.9549 244.72 83.9003 241.275 84.583 238.523C85.7069 234.017 88.1122 229.364 87.3034 224.364C86.5051 219.459 82.3983 215.552 81.537 210.783C80.5917 205.521 83.165 200.521 83.7742 195.542C85.0662 184.997 78.4699 175.691 80.287 165.229C81.0328 160.902 84.3204 157.467 85.0557 153.266C85.9485 148.192 82.9024 143.13 81.9991 138.298C81.3269 134.685 81.1904 129.013 82.1462 125.221C83.249 120.873 86.0115 118.52 85.6964 113.625C85.0241 103.143 91.7779 89.2569 102.807 84.4883C102.807 84.4883 105.391 99.0567 105.328 124.559H105.349Z" fill="#88523B"/>
<path d="M154.852 114.532C159.578 123.292 155.923 130.896 155.912 139.898C155.891 149.393 162.53 156.777 159.211 166.325C157.488 171.272 155.902 174.213 155.912 179.57C155.912 184.202 157.33 188.372 157.498 192.752C157.877 202.877 150.976 208.349 155.398 218.643C159.683 228.621 155.881 236.804 158.024 246.792C159.305 252.748 163.696 253.462 162.257 260.384C161.311 264.901 157.751 269.26 163.454 272.4C166.889 274.291 172.077 272.4 176.016 273.041C181.205 273.871 181.268 275.604 185.469 271.486C189.251 267.779 189.86 266.224 189.314 260.92C188.873 256.592 190.07 252.212 189.324 248.231C188.494 243.778 185.785 240.354 185.49 235.554C185.217 231.058 187.139 227.14 186.005 222.886C184.734 218.149 182.203 215.502 183.379 210.156C184.377 205.619 185.953 203.003 184.965 198.035C184.072 193.518 182.276 188.76 181.783 184.307C181.258 179.612 183.442 175.347 182.749 170.558C182.024 165.558 181.436 162.943 182.444 157.869C183.631 151.924 182.045 150.37 180.617 144.792C179.209 139.289 182.875 135.15 182.329 129.867C181.804 124.762 179.777 122.021 180.333 116.653C181.215 108.093 176.478 98.2722 172.424 90.6362C170.491 86.9914 167.624 83.5043 164.494 80.5948C160.797 77.1496 158.969 77.6643 154.705 81.0989C151.112 83.9874 142.111 92.6739 141.796 97.2429C141.302 104.144 151.942 109.133 154.862 114.542L154.852 114.532Z" fill="#88523B"/>
</g>
</svg>
