<svg width="80" height="80" viewBox="0 0 80 80" fill="none" xmlns="http://www.w3.org/2000/svg">
<mask id="mask0_2_529" style="mask-type:luminance" maskUnits="userSpaceOnUse" x="0" y="0" width="47" height="47">
<path d="M23.5 47C36.4787 47 47 36.4787 47 23.5C47 10.5213 36.4787 0 23.5 0C10.5213 0 0 10.5213 0 23.5C0 36.4787 10.5213 47 23.5 47Z" fill="white"/>
</mask>
<g mask="url(#mask0_2_529)">
<path d="M49.7131 34.2289C50.7377 32.7017 51.6205 31.1166 52.3808 29.4863V26.5094L40.2474 -1.31433H25.891C25.7621 -0.88905 25.6332 -0.444438 25.5237 0.0452795L46.066 38.7845C47.3934 37.3669 48.6242 35.8591 49.7196 34.2289H49.7131Z" fill="#F8BFA2"/>
<path d="M38.0305 -1.31439H-1.75903V38.6427C0.882864 42.438 5.32898 45.009 9.35627 47.0646C10.2777 47.5349 11.212 47.986 12.1593 48.4242H26.0582C26.1033 47.6767 26.1871 47.2256 26.1871 47.2256L29.6667 29.7698C35.9299 23.6419 31.168 14.2277 31.168 14.2277C29.802 9.47228 35.6721 9.95556 35.6721 9.95556C37.8501 8.09978 36.6516 5.68986 36.6516 5.68986C36.6516 5.68986 37.9919 2.17162 38.0241 -1.31439L38.0305 -1.31439Z" fill="#F8BFA2"/>
<path d="M49.7131 34.2294C50.3897 33.2177 51.0019 32.1803 51.5624 31.1171C47.8573 30.492 45.0866 33.5786 45.0866 33.5786L39.3582 44.623C43.3468 41.7362 46.9617 38.334 49.7196 34.2229L49.7131 34.2294Z" fill="#F8BFA2"/>
<path d="M-0.586034 30.8525C-0.586034 30.8525 -0.276744 30.3757 0.290298 29.7958C0.432058 29.6476 0.580266 29.4929 0.747801 29.3383C0.92178 29.1901 1.0571 28.9968 1.22463 28.8228C1.54681 28.4684 1.90766 28.1204 2.28139 27.7918C2.63579 27.4181 3.00308 27.0572 3.37037 26.735C3.55079 26.574 3.7441 26.4322 3.90519 26.2775C4.07272 26.1229 4.24026 25.9876 4.38846 25.8587C5.00061 25.3497 5.50322 25.0726 5.50322 25.0726C5.50322 25.0726 5.34212 25.6139 4.95551 26.3355C4.85885 26.516 4.75575 26.7093 4.63332 26.9155C4.51734 27.1217 4.36269 27.3085 4.20804 27.5083C3.89874 27.9078 3.54434 28.3202 3.17061 28.7197C2.75177 29.087 2.32005 29.4349 1.90121 29.7378C1.68857 29.8795 1.49526 30.0471 1.28262 30.1373C1.07642 30.2404 0.876672 30.3242 0.689806 30.4079C-0.0447704 30.7366 -0.60537 30.859 -0.60537 30.859L-0.586034 30.8525Z" fill="#EBA98C"/>
<path d="M31.3099 14.9819C31.3099 14.9819 31.6643 15.4716 32.1218 16.4188C32.5793 17.366 33.1464 18.7901 33.4363 20.6136C33.5845 21.5222 33.6232 22.5338 33.533 23.6035C33.4428 24.6731 33.1528 25.7943 32.6889 26.8833C32.2314 27.9787 31.5032 28.9968 30.6656 29.8989C29.815 30.8461 28.7453 31.5485 27.6177 32.1026C26.4836 32.6504 25.2464 33.0241 24.0028 33.1207C22.7592 33.2432 21.522 33.095 20.3879 32.7857C19.2538 32.4635 18.2293 31.9802 17.3207 31.439C16.4251 30.8719 15.6325 30.2726 14.9624 29.6605C14.2793 29.0548 13.7123 28.4491 13.229 27.8949C12.7264 27.3601 12.3656 26.8253 12.0369 26.4193C11.4248 25.5623 11.0962 25.0662 11.0962 25.0662C11.0962 25.0662 11.5021 25.5043 12.2174 26.2647C12.5911 26.6255 13.0164 27.0959 13.5577 27.5728C14.0796 28.0689 14.7046 28.5909 15.4005 29.1257C16.09 29.6734 16.9019 30.1696 17.7718 30.6528C18.6546 31.1103 19.6211 31.4969 20.6586 31.7289C21.6895 31.9673 22.7914 32.064 23.8804 31.9158C24.9694 31.7805 26.0583 31.4647 27.0636 30.9621C28.0623 30.4531 29.0095 29.8087 29.7441 29.0161C30.5173 28.2171 31.1424 27.3215 31.5999 26.3742C32.0638 25.427 32.3473 24.4347 32.502 23.4746C32.6631 22.508 32.6695 21.5673 32.6309 20.6974C32.5213 18.9576 32.154 17.5142 31.8576 16.5219C31.5548 15.5296 31.3164 14.9754 31.3164 14.9754L31.3099 14.9819Z" fill="#EBA98C"/>
<path d="M25.8522 23.732C25.8522 25.0466 24.8341 26.1098 23.5711 26.1098C22.3082 26.1098 21.2901 25.0466 21.2901 23.732C21.2901 22.4175 22.3082 21.3543 23.5711 21.3543C24.8341 21.3543 25.8522 22.4175 25.8522 23.732Z" fill="#EBA98C"/>
<path d="M24.4601 23.7326C24.4601 24.2223 24.067 24.6154 23.5773 24.6154C23.0876 24.6154 22.6945 24.2159 22.6945 23.7326C22.6945 23.2493 23.0876 22.8498 23.5773 22.8498C24.067 22.8498 24.4601 23.2429 24.4601 23.7326Z" fill="#DFA186"/>
<path d="M7.41046 29.7181C7.41046 34.8472 7.55867 39.9764 7.62955 45.1055C7.64244 45.9368 8.93117 45.9368 8.91828 45.1055C8.8474 39.9764 8.70564 34.8472 8.69919 29.7181C8.69919 28.8869 7.41046 28.8869 7.41046 29.7181Z" fill="#EBA98C"/>
<path d="M25.0688 24.5327C25.0688 24.5327 25.0808 24.5136 25.1089 24.4802C25.133 24.4516 25.1691 24.3943 25.2172 24.3466C25.2574 24.2942 25.3376 24.2369 25.3617 24.1606C25.3978 24.0843 25.4138 24.0175 25.4339 23.946C25.4539 23.8602 25.482 23.8077 25.478 23.7361C25.478 23.6694 25.482 23.6217 25.462 23.5835C25.4499 23.5644 25.462 23.5549 25.4419 23.5454C25.4259 23.5311 25.4178 23.5263 25.4178 23.5263C25.4218 23.5263 25.3938 23.5168 25.3978 23.5168C25.3897 23.5168 25.4058 23.5168 25.3978 23.5072C25.3938 23.4977 25.3897 23.4881 25.3978 23.4738V23.4643L25.4058 23.4595C25.4539 23.6121 25.4178 23.5024 25.4299 23.5358L25.4098 23.4452C25.3938 23.388 25.4098 23.4452 25.4299 23.4691C25.4499 23.4977 25.478 23.5215 25.482 23.5215C25.5101 23.5311 25.5262 23.5358 25.5422 23.5215C25.5663 23.4977 25.5422 23.4309 25.486 23.3594C25.4339 23.2878 25.3496 23.1972 25.2734 23.1018C25.1892 22.9969 25.1169 22.8872 25.0648 22.7584C25.0126 22.6439 24.9966 22.5152 25.0006 22.4293C25.0006 22.3435 25.0327 22.2719 25.0487 22.2338C25.0648 22.1956 25.0768 22.1765 25.0768 22.1765C25.0768 22.1765 25.1611 22.229 25.2694 22.229C25.3215 22.229 25.3817 22.2051 25.4299 22.1813C25.478 22.1527 25.5382 22.105 25.5984 22.0716C25.6706 22.0382 25.7468 22.0096 25.8632 22.0001C25.9795 22.0001 26.132 22.0096 26.3205 22.1098C26.4208 22.167 26.5131 22.2385 26.6054 22.3435C26.6495 22.3864 26.7016 22.4627 26.7498 22.539C26.7698 22.5772 26.7939 22.6201 26.814 22.663L26.8421 22.725L26.8822 22.8061L26.9183 22.9206L26.9303 22.9587L26.9464 23.0398C26.9704 23.1495 26.9865 23.2592 26.9985 23.3737C27.0066 23.6026 26.9825 23.8649 26.9063 24.0843C26.826 24.3085 26.7177 24.5136 26.5733 24.6471C26.4449 24.8045 26.2844 24.8808 26.144 24.9428C26.0036 25.0048 25.8591 24.9953 25.7388 25.0001C25.6144 24.9953 25.486 24.9428 25.3978 24.8999C25.2975 24.8665 25.2614 24.7854 25.2132 24.7377C25.1691 24.69 25.133 24.628 25.1089 24.5994C25.0848 24.566 25.0728 24.547 25.0728 24.547L25.0688 24.5327Z" fill="#EE7977"/>
<path d="M24.6993 21.9665C24.6993 21.9665 24.6792 21.9563 24.6434 21.9314C24.6127 21.9101 24.5523 21.8794 24.5004 21.8358C24.4445 21.8007 24.3801 21.726 24.3019 21.7091C24.2226 21.6801 24.1547 21.6703 24.0816 21.6569C23.9943 21.6448 23.9394 21.6216 23.8686 21.6322C23.8021 21.6383 23.7542 21.6387 23.7181 21.6622C23.7002 21.6759 23.6896 21.6648 23.6819 21.6857C23.6691 21.703 23.6651 21.7114 23.6651 21.7114C23.6648 21.7074 23.6578 21.7363 23.6575 21.7323C23.6582 21.7402 23.6567 21.7243 23.648 21.7331C23.6388 21.738 23.6297 21.7429 23.6147 21.7362L23.6052 21.7371L23.5997 21.7295C23.7473 21.6676 23.6414 21.7136 23.6735 21.6985L23.5851 21.7268C23.5296 21.7481 23.5851 21.7268 23.607 21.7047C23.6337 21.6821 23.6548 21.6519 23.6545 21.6479C23.6614 21.6191 23.6647 21.6027 23.649 21.588C23.623 21.5662 23.5587 21.5963 23.4926 21.6588C23.4262 21.7173 23.3437 21.8095 23.2557 21.8942C23.159 21.9877 23.0564 22.0697 22.9329 22.1335C22.8237 22.1959 22.697 22.2237 22.6111 22.2276C22.5256 22.2355 22.4514 22.2101 22.412 22.1976C22.3725 22.1852 22.3524 22.1749 22.3524 22.1749C22.3524 22.1749 22.3969 22.0862 22.3869 21.9784C22.3822 21.9264 22.3529 21.8687 22.3247 21.8229C22.2918 21.7776 22.2388 21.7221 22.2 21.6652C22.1601 21.5964 22.1246 21.5231 22.1044 21.4081C22.0938 21.2923 22.0893 21.1396 22.1717 20.9426C22.2195 20.8375 22.2822 20.739 22.3782 20.6375C22.4169 20.5896 22.4881 20.5307 22.5597 20.4757C22.5958 20.4523 22.6364 20.4244 22.6773 20.4004L22.7364 20.3668L22.8135 20.3194L22.9242 20.2729L22.961 20.2574L23.0403 20.234C23.1473 20.2 23.2551 20.1739 23.368 20.1514C23.5952 20.1224 23.8586 20.1223 24.0841 20.178C24.3147 20.2373 24.5289 20.3264 24.6751 20.4579C24.8436 20.5713 24.9343 20.7241 25.009 20.8582C25.0836 20.9924 25.0874 21.137 25.1032 21.2565C25.1099 21.3807 25.0694 21.5134 25.0348 21.6052C25.0107 21.7082 24.9333 21.7516 24.8902 21.8039C24.8468 21.8522 24.7884 21.8939 24.7621 21.9205C24.7311 21.9475 24.7132 21.9612 24.7132 21.9612L24.6993 21.9665Z" fill="#EE7977"/>
<path d="M21.9621 22.4714C21.9621 22.4714 21.9516 22.4914 21.9262 22.5269C21.9045 22.5573 21.873 22.6172 21.8288 22.6686C21.793 22.7241 21.7175 22.7875 21.6995 22.8654C21.6695 22.9444 21.6588 23.0122 21.6445 23.0851C21.6313 23.1723 21.6074 23.2268 21.6171 23.2978C21.6223 23.3643 21.6221 23.4122 21.6451 23.4487C21.6586 23.4667 21.6474 23.4772 21.6681 23.4851C21.6852 23.4981 21.6936 23.5022 21.6936 23.5022C21.6896 23.5025 21.7184 23.5098 21.7144 23.5101C21.7224 23.5095 21.7064 23.5108 21.7151 23.5197C21.7199 23.5289 21.7246 23.538 21.7178 23.5529L21.7185 23.5625L21.7109 23.5678C21.6508 23.4195 21.6955 23.526 21.6809 23.4937L21.708 23.5824C21.7285 23.6382 21.708 23.5824 21.6861 23.5602C21.6639 23.5333 21.634 23.5117 21.63 23.512C21.6013 23.5048 21.5849 23.5013 21.57 23.5168C21.5479 23.5425 21.5772 23.6071 21.6388 23.674C21.6965 23.7412 21.7876 23.8249 21.8711 23.914C21.9634 24.0119 22.044 24.1156 22.1062 24.2398C22.1672 24.3498 22.1934 24.4769 22.1962 24.5628C22.203 24.6484 22.1766 24.7223 22.1636 24.7616C22.1507 24.8009 22.1402 24.8208 22.1402 24.8208C22.1402 24.8208 22.052 24.7752 21.944 24.7837C21.8921 24.7879 21.8339 24.8164 21.7878 24.844C21.7421 24.8763 21.6859 24.9286 21.6285 24.9666C21.5592 25.0056 21.4854 25.0402 21.3702 25.0589C21.2542 25.068 21.1015 25.0706 20.9056 24.9856C20.8011 24.9365 20.7035 24.8725 20.6032 24.7751C20.5558 24.7358 20.4978 24.6639 20.4438 24.5916C20.4208 24.5552 20.3934 24.5143 20.37 24.4731L20.3371 24.4135L20.2907 24.3358L20.2457 24.2246L20.2307 24.1875L20.2083 24.1079C20.1756 24.0005 20.1509 23.8924 20.1299 23.7792C20.1038 23.5516 20.1071 23.2882 20.1658 23.0635C20.2281 22.8337 20.3198 22.6207 20.4533 22.4761C20.5688 22.3091 20.7228 22.2204 20.8579 22.1475C20.9929 22.0746 21.1377 22.0727 21.2573 22.0584C21.3816 22.0533 21.5138 22.0955 21.6051 22.1313C21.7078 22.1567 21.7502 22.2347 21.8019 22.2784C21.8497 22.3225 21.8906 22.3814 21.9168 22.408C21.9435 22.4394 21.957 22.4575 21.957 22.4575L21.9621 22.4714Z" fill="#EE7977"/>
<path d="M22.4711 25.2458C22.4711 25.2458 22.4909 25.2565 22.5262 25.2822C22.5564 25.3042 22.6161 25.3362 22.667 25.3809C22.7222 25.4172 22.7849 25.4933 22.8627 25.512C22.9413 25.5426 23.0091 25.554 23.0818 25.569C23.1689 25.583 23.2232 25.6073 23.2943 25.5983C23.3609 25.5937 23.4087 25.5943 23.4454 25.5716C23.4636 25.5583 23.4739 25.5696 23.482 25.549C23.4952 25.532 23.4994 25.5236 23.4994 25.5236C23.4997 25.5276 23.5072 25.4989 23.5075 25.5029C23.5069 25.4949 23.5081 25.5109 23.517 25.5023C23.5262 25.4976 23.5355 25.4929 23.5503 25.4999L23.5598 25.4993L23.5652 25.5069C23.4163 25.5656 23.5232 25.522 23.4907 25.5363L23.5797 25.5099C23.6357 25.4899 23.5797 25.5099 23.5573 25.5316C23.5302 25.5536 23.5084 25.5833 23.5086 25.5873C23.5011 25.616 23.4974 25.6323 23.5128 25.6474C23.5383 25.6697 23.6032 25.641 23.6707 25.58C23.7384 25.5229 23.8229 25.4326 23.9127 25.3499C24.0115 25.2585 24.1159 25.1788 24.2407 25.1177C24.3512 25.0577 24.4786 25.0327 24.5645 25.0307C24.6501 25.0247 24.7237 25.0517 24.7629 25.065C24.8021 25.0784 24.822 25.089 24.822 25.089C24.822 25.089 24.7755 25.1767 24.7831 25.2848C24.7868 25.3368 24.8148 25.3952 24.8419 25.4416C24.8738 25.4876 24.9256 25.5443 24.9631 25.602C25.0015 25.6717 25.0354 25.7457 25.053 25.8611C25.0612 25.9772 25.0623 26.1299 24.9756 26.325C24.9255 26.4291 24.8606 26.5261 24.7624 26.6255C24.7226 26.6725 24.6502 26.7299 24.5774 26.7833C24.5408 26.8059 24.4996 26.833 24.4582 26.856L24.3983 26.8883L24.3202 26.934L24.2086 26.978L24.1714 26.9927L24.0916 27.0144C23.9838 27.0461 23.8755 27.0698 23.7622 27.0898C23.5344 27.1138 23.271 27.1081 23.0468 27.0474C22.8176 26.9831 22.6054 26.8894 22.4621 26.7546C22.2961 26.6376 22.2088 26.4828 22.1371 26.3471C22.0654 26.2113 22.0649 26.0666 22.0517 25.9469C22.0477 25.8225 22.0911 25.6907 22.1277 25.5997C22.154 25.4973 22.2324 25.4556 22.2766 25.4042C22.3211 25.3569 22.3804 25.3165 22.4073 25.2905C22.4389 25.2642 22.4571 25.2508 22.4571 25.2508L22.4711 25.2458Z" fill="#EE7977"/>
</g>
</svg>
