<svg width="80" height="80" viewBox="0 0 80 80" fill="none" xmlns="http://www.w3.org/2000/svg">
<mask id="mask0_2_554" style="mask-type:luminance" maskUnits="userSpaceOnUse" x="0" y="0" width="80" height="80">
<path d="M46.9935 23.5C46.9935 36.4775 36.4711 47 23.4936 47C10.516 47 0 36.4775 0 23.5C0 10.5225 10.5225 0 23.5 0C36.4775 0 47 10.5225 47 23.5H46.9935Z" fill="white"/>
</mask>
<g mask="url(#mask0_2_554)">
<path d="M49.7128 34.2281C50.7373 32.701 51.6201 31.1159 52.3804 29.4856V26.5086L40.2406 -1.31505H25.8841C25.7553 -0.889767 25.6264 -0.445155 25.5168 0.0445623L46.0592 38.7838C47.393 37.3662 48.6173 35.8584 49.7128 34.2281Z" fill="#F8BFA2"/>
<path d="M38.0238 -1.31505H-1.75935V38.642C0.882544 42.4373 5.32866 45.0084 9.35595 47.0639C10.2774 47.5343 11.2117 47.9853 12.1525 48.4235H26.0515C26.0966 47.676 26.1803 47.225 26.1803 47.225L29.6599 29.7691C35.9231 23.6412 31.1613 14.227 31.1613 14.227C29.7952 9.47163 35.6654 9.9549 35.6654 9.9549C37.8433 8.09913 36.6448 5.6892 36.6448 5.6892C36.6448 5.6892 37.9851 2.17097 38.0173 -1.31505L38.0238 -1.31505Z" fill="#F8BFA2"/>
<path d="M49.7128 34.2289C50.3893 33.2172 51.0015 32.1798 51.5621 31.1166C47.857 30.4916 45.0798 33.5781 45.0798 33.5781L39.3514 44.6225C43.34 41.7357 46.9549 38.3335 49.7128 34.2225V34.2289Z" fill="#F8BFA2"/>
<path d="M-0.586588 30.8509C-0.586588 30.8509 -0.277292 30.3741 0.289749 29.7941C0.431509 29.6459 0.579713 29.4913 0.747248 29.3366C0.921227 29.1884 1.05654 28.9951 1.22408 28.8211C1.54626 28.4667 1.90711 28.1188 2.28084 27.7902C2.63524 27.4164 3.00253 27.0556 3.36982 26.7334C3.55024 26.5723 3.74355 26.4305 3.90464 26.2759C4.07217 26.1213 4.23326 25.9859 4.38791 25.8571C5.00006 25.348 5.50266 25.0709 5.50266 25.0709C5.50266 25.0709 5.34157 25.6122 4.95495 26.3339C4.8583 26.5143 4.7552 26.7141 4.63277 26.9138C4.51679 27.12 4.36214 27.3069 4.20749 27.5066C3.89819 27.9061 3.54379 28.3185 3.17006 28.7116C2.75122 29.0789 2.3195 29.4268 1.90066 29.7297C1.68802 29.8715 1.49471 30.039 1.28207 30.1292C1.07587 30.2323 0.876121 30.3161 0.689255 30.3998C-0.045321 30.7285 -0.605919 30.8509 -0.605919 30.8509H-0.586588Z" fill="#EBA98C"/>
<path d="M31.3096 14.9815C31.3096 14.9815 31.664 15.4712 32.1215 16.4184C32.579 17.3656 33.146 18.7897 33.436 20.6132C33.5842 21.5218 33.6228 22.5334 33.5326 23.6031C33.4424 24.6727 33.1525 25.7939 32.6885 26.8829C32.231 27.9783 31.5029 28.9964 30.6652 29.8985C29.8147 30.8458 28.745 31.5481 27.6174 32.1023C26.4833 32.65 25.2461 33.0237 24.0025 33.1204C22.7589 33.2428 21.5217 33.0946 20.3876 32.7853C19.2535 32.4631 18.229 31.9798 17.3204 31.4386C16.4247 30.8715 15.6322 30.2723 14.962 29.6601C14.279 29.0544 13.712 28.4487 13.2287 27.8946C12.7261 27.3597 12.3652 26.8249 12.0366 26.419C11.4245 25.562 11.0958 25.0658 11.0958 25.0658C11.0958 25.0658 11.5018 25.504 12.217 26.2643C12.5908 26.6252 13.016 27.0956 13.5573 27.5724C14.0793 28.0685 14.7043 28.5905 15.4002 29.1253C16.0897 29.673 16.9016 30.1692 17.7715 30.646C18.6542 31.1035 19.6208 31.4901 20.6582 31.7221C21.6892 31.9605 22.7911 32.0572 23.88 31.909C24.969 31.7736 26.058 31.4579 27.0632 30.9553C28.062 30.4463 29.0092 29.8019 29.7438 29.0093C30.517 28.2103 31.142 27.3146 31.5995 26.3674C32.0635 25.4202 32.3406 24.4279 32.5017 23.4678C32.6563 22.5012 32.6627 21.5605 32.6241 20.6906C32.5145 18.9508 32.1473 17.5074 31.8508 16.5151C31.548 15.5228 31.3096 14.9686 31.3096 14.9686V14.9815Z" fill="#EBA98C"/>
<path d="M25.852 23.7314C25.852 25.0459 24.8339 26.1091 23.571 26.1091C22.308 26.1091 21.2899 25.0459 21.2899 23.7314C21.2899 22.4169 22.3145 21.3537 23.571 21.3537C24.8275 21.3537 25.852 22.4169 25.852 23.7314Z" fill="#EBA98C"/>
<path d="M24.4537 23.7314C24.4537 24.2211 24.0607 24.6142 23.571 24.6142C23.0812 24.6142 22.6882 24.2147 22.6882 23.7314C22.6882 23.2481 23.0877 22.8486 23.571 22.8486C24.0542 22.8486 24.4537 23.2417 24.4537 23.7314Z" fill="#DFA186"/>
<path d="M7.41015 29.7175C7.41015 34.8466 7.55835 39.9758 7.62923 45.1049C7.64212 45.9362 8.93085 45.9362 8.91796 45.1049C8.84708 39.9758 8.70532 34.8466 8.69888 29.7175C8.69888 28.8863 7.41015 28.8863 7.41015 29.7175Z" fill="#EBA98C"/>
<path d="M25.085 30.3103L23.6158 26.5665L22.1467 30.3103C22.0114 30.6453 21.9276 31.0255 21.9083 31.3928C21.8503 32.5011 22.63 33.4226 23.6158 33.429C24.3117 33.429 24.9239 33.081 25.1945 32.3594C25.3943 31.8245 25.3363 31.2253 25.2074 30.6776C25.1752 30.5487 25.1365 30.4327 25.0914 30.3103H25.085Z" fill="#EC524F"/>
</g>
</svg>
