<svg width="80" height="80" viewBox="0 0 80 80" fill="none" xmlns="http://www.w3.org/2000/svg">
<mask id="mask0_2_438" style="mask-type:luminance" maskUnits="userSpaceOnUse" x="0" y="0" width="47" height="47">
<path d="M23.5 47C36.4787 47 47 36.4787 47 23.5C47 10.5213 36.4787 0 23.5 0C10.5213 0 0 10.5213 0 23.5C0 36.4787 10.5213 47 23.5 47Z" fill="white"/>
</mask>
<g mask="url(#mask0_2_438)">
<path d="M49.7132 34.2289C50.7377 32.7017 51.6205 31.1166 52.3808 29.4863V26.5094L40.2474 -1.31433H25.891C25.7621 -0.889054 25.6332 -0.444442 25.5237 0.0452757L46.066 38.7845C47.3934 37.3669 48.6242 35.8591 49.7196 34.2289H49.7132Z" fill="#F8BFA2"/>
<path d="M38.0305 -1.31439H-1.75903V38.6427C0.882864 42.438 5.32898 45.009 9.35627 47.0646C10.2777 47.5349 11.212 47.986 12.1593 48.4242H26.0582C26.1033 47.6767 26.1871 47.2256 26.1871 47.2256L29.6667 29.7698C35.9299 23.6419 31.168 14.2277 31.168 14.2277C29.802 9.47228 35.6721 9.95555 35.6721 9.95555C37.8501 8.09978 36.6516 5.68986 36.6516 5.68986C36.6516 5.68986 37.9919 2.17162 38.0241 -1.31439L38.0305 -1.31439Z" fill="#F8BFA2"/>
<path d="M49.7131 34.2294C50.3897 33.2177 51.0018 32.1803 51.5624 31.1171C47.8573 30.492 45.0866 33.5786 45.0866 33.5786L39.3582 44.623C43.3468 41.7362 46.9617 38.334 49.7195 34.2229L49.7131 34.2294Z" fill="#F8BFA2"/>
<path d="M-0.586042 30.8525C-0.586042 30.8525 -0.276751 30.3757 0.29029 29.7958C0.43205 29.6476 0.580259 29.4929 0.747794 29.3383C0.921772 29.1901 1.05709 28.9968 1.22462 28.8228C1.54681 28.4684 1.90765 28.1204 2.28138 27.7918C2.63578 27.4181 3.00307 27.0572 3.37036 26.735C3.55078 26.574 3.74409 26.4322 3.90518 26.2775C4.07271 26.1229 4.24025 25.9876 4.38845 25.8587C5.0006 25.3497 5.50321 25.0726 5.50321 25.0726C5.50321 25.0726 5.34212 25.6139 4.9555 26.3355C4.85884 26.516 4.75574 26.7093 4.63332 26.9155C4.51733 27.1217 4.36268 27.3085 4.20803 27.5083C3.89874 27.9078 3.54434 28.3202 3.1706 28.7197C2.75177 29.087 2.32004 29.4349 1.9012 29.7378C1.68856 29.8795 1.49525 30.0471 1.28261 30.1373C1.07642 30.2404 0.876664 30.3242 0.689798 30.4079C-0.044778 30.7366 -0.605377 30.859 -0.605377 30.859L-0.586042 30.8525Z" fill="#EBA98C"/>
<path d="M31.3099 14.9811C31.3099 14.9811 31.6643 15.4708 32.1218 16.418C32.5793 17.3653 33.1464 18.7893 33.4363 20.6129C33.5845 21.5214 33.6232 22.5331 33.533 23.6027C33.4428 24.6724 33.1528 25.7936 32.6889 26.8825C32.2314 27.978 31.5032 28.9961 30.6656 29.8982C29.815 30.8454 28.7453 31.5477 27.6177 32.1019C26.4836 32.6496 25.2465 33.0233 24.0028 33.12C22.7592 33.2424 21.522 33.0942 20.3879 32.7849C19.2539 32.4627 18.2293 31.9795 17.3208 31.4382C16.4251 30.8712 15.6325 30.2719 14.9624 29.6598C14.2794 29.0541 13.7123 28.4483 13.229 27.8942C12.7264 27.3594 12.3656 26.8245 12.037 26.4186C11.4248 25.5616 11.0962 25.0654 11.0962 25.0654C11.0962 25.0654 11.5021 25.5036 12.2174 26.2639C12.5911 26.6248 13.0164 27.0952 13.5577 27.572C14.0796 28.0682 14.7046 28.5901 15.4006 29.1249C16.09 29.6726 16.9019 30.1688 17.7718 30.6521C18.6546 31.1096 19.6211 31.4962 20.6586 31.7282C21.6896 31.9666 22.7914 32.0632 23.8804 31.915C24.9694 31.7797 26.0584 31.464 27.0636 30.9614C28.0623 30.4523 29.0095 29.808 29.7441 29.0154C30.5174 28.2164 31.1424 27.3207 31.5999 26.3735C32.0638 25.4263 32.3474 24.434 32.502 23.4738C32.6631 22.5073 32.6695 21.5665 32.6309 20.6966C32.5213 18.9568 32.154 17.5135 31.8576 16.5211C31.5548 15.5288 31.3164 14.9747 31.3164 14.9747L31.3099 14.9811Z" fill="#EE7977"/>
<path d="M25.8522 23.7321C25.8522 25.0466 24.8341 26.1098 23.5711 26.1098C22.3082 26.1098 21.2901 25.0466 21.2901 23.7321C21.2901 22.4175 22.3082 21.3543 23.5711 21.3543C24.8341 21.3543 25.8522 22.4175 25.8522 23.7321Z" fill="#EBA98C"/>
<path d="M24.4601 23.7326C24.4601 24.2223 24.067 24.6154 23.5773 24.6154C23.0876 24.6154 22.6945 24.2159 22.6945 23.7326C22.6945 23.2493 23.0876 22.8498 23.5773 22.8498C24.067 22.8498 24.4601 23.2429 24.4601 23.7326Z" fill="#DFA186"/>
<path d="M7.41046 29.7181C7.41046 34.8472 7.55867 39.9764 7.62955 45.1055C7.64244 45.9368 8.93117 45.9368 8.91828 45.1055C8.8474 39.9764 8.70564 34.8472 8.69919 29.7181C8.69919 28.8869 7.41046 28.8869 7.41046 29.7181Z" fill="#EBA98C"/>
<path d="M28.2814 23.4296C28.2814 23.4296 28.3007 23.4039 28.3459 23.3588C28.3845 23.3201 28.4425 23.2428 28.5198 23.1783C28.5843 23.1075 28.7131 23.0301 28.7518 22.927C28.8098 22.8239 28.8356 22.7337 28.8678 22.6371C28.9 22.5211 28.9451 22.4502 28.9387 22.3535C28.9387 22.2633 28.9451 22.1989 28.9129 22.1473C28.8936 22.1216 28.9129 22.1087 28.8807 22.0958C28.8549 22.0765 28.842 22.07 28.842 22.07C28.8485 22.07 28.8034 22.0571 28.8098 22.0571C28.7969 22.0571 28.8227 22.0571 28.8098 22.0443C28.8034 22.0314 28.7969 22.0185 28.8098 21.9991V21.9863L28.8227 21.9798C28.9 22.186 28.842 22.0378 28.8613 22.0829L28.8291 21.9605C28.8034 21.8832 28.8291 21.9605 28.8613 21.9927C28.8936 22.0314 28.9387 22.0636 28.9451 22.0636C28.9902 22.0765 29.016 22.0829 29.0418 22.0636C29.0804 22.0314 29.0418 21.9412 28.9516 21.8445C28.8678 21.7478 28.7325 21.6254 28.61 21.4965C28.4747 21.3548 28.3587 21.2066 28.275 21.0326C28.1912 20.8779 28.1654 20.704 28.1719 20.588C28.1719 20.472 28.2234 20.3753 28.2492 20.3238C28.275 20.2722 28.2943 20.2465 28.2943 20.2465C28.2943 20.2465 28.4296 20.3174 28.6036 20.3174C28.6874 20.3174 28.784 20.2851 28.8613 20.2529C28.9387 20.2143 29.0353 20.1498 29.132 20.1047C29.248 20.0596 29.3704 20.0209 29.5573 20.0081C29.7441 20.0081 29.989 20.0209 30.2918 20.1563C30.4529 20.2336 30.6011 20.3302 30.7493 20.472C30.8202 20.53 30.904 20.6331 30.9813 20.7362C31.0135 20.7877 31.0522 20.8457 31.0844 20.9037L31.1295 20.9875L31.1939 21.097L31.2519 21.2517L31.2713 21.3032L31.297 21.4128C31.3357 21.561 31.3615 21.7092 31.3808 21.8638C31.3937 22.1731 31.355 22.5275 31.2326 22.8239C31.1037 23.1268 30.9298 23.4039 30.6978 23.5843C30.4916 23.7969 30.2338 23.9 30.0083 23.9838C29.7828 24.0676 29.5508 24.0547 29.3575 24.0611C29.1578 24.0547 28.9516 23.9838 28.8098 23.9258C28.6487 23.8807 28.5907 23.7712 28.5134 23.7067C28.4425 23.6423 28.3845 23.5585 28.3459 23.5198C28.3072 23.4747 28.2879 23.449 28.2879 23.449L28.2814 23.4296Z" fill="#EE7977"/>
</g>
</svg>
