<svg width="80" height="80" viewBox="0 0 80 80" fill="none" xmlns="http://www.w3.org/2000/svg">
<g filter="url(#filter0_d_2_365)">
<path d="M60.9935 33.5C60.9935 46.4775 50.4711 57 37.4936 57C24.516 57 14 46.4775 14 33.5C14 20.5225 24.5225 10 37.5 10C50.4775 10 61 20.5225 61 33.5H60.9935Z" fill="white"/>
</g>
<mask id="mask0_2_365" style="mask-type:luminance" maskUnits="userSpaceOnUse" x="14" y="10" width="47" height="48">
<path d="M60.9998 33.5031C60.9998 46.4824 50.4759 57.0063 37.4967 57.0063C24.5174 57.0063 14 46.4824 14 33.5031C14 20.5239 24.5239 10 37.4967 10C50.4695 10 60.9998 20.5239 60.9998 33.5031Z" fill="white"/>
</mask>
<g mask="url(#mask0_2_365)">
<path d="M8.0785 59.0092L33.1291 16.5181C33.9774 7.8477 26.0056 4.79122 26.0056 4.79122C18.9695 4.75379 17.5598 9.9186 17.5598 9.9186L-2.99963 56.3145C-2.99963 56.3145 4.785 61.7164 8.06603 59.0092H8.0785Z" fill="#F8BFA2"/>
<path d="M21.6019 24.0026C21.6019 24.0026 27.615 23.4163 26.1803 28.4064C26.1803 28.4064 21.1777 38.2869 27.7522 44.7242L31.4075 63.0631C31.4075 63.0631 32.2933 67.891 29.9354 72.4944C29.9354 72.4944 23.1613 85.3066 20.9407 95H79.6747C77.4416 85.3066 70.68 72.4944 70.68 72.4944C68.3221 67.891 69.2079 63.0631 69.2079 63.0631L72.8632 44.7242C79.4377 38.2869 74.4351 28.4064 74.4351 28.4064C73.0004 23.4163 79.1632 23.9153 79.1632 23.9153C81.4462 21.9691 80.1987 19.4366 80.1987 19.4366C80.1987 19.4366 84.1409 9.10704 79.0135 5.90087L55.8093 0H44.7936L21.5894 5.90087C16.462 9.11952 20.4042 19.4366 20.4042 19.4366C20.4042 19.4366 19.2939 22.0565 21.5894 24.0026H21.6019Z" fill="#F8BFA2"/>
<g style="mix-blend-mode:multiply" opacity="0.6">
<path d="M61.8471 46.7933C52.6029 42.0651 51.6423 35.8898 52.1413 30.6127C50.9811 31.3363 50.5444 32.222 49.2595 29.5273C50.1452 37.2995 49.0599 38.1603 47.5129 39.7946C45.9036 41.4912 43.2463 44.4479 41.0756 45.3586C38.4059 46.4689 35.5989 47.4295 32.6797 47.1301C30.8707 46.943 29.3737 45.5832 27.7769 44.8471L29.4486 53.2306C31.7066 53.4925 33.9646 53.5674 36.1603 52.744C38.8176 51.746 41.2752 50.3488 43.396 48.44C45.5293 46.5188 47.9745 42.377 51.3304 43.3002C52.765 43.6994 53.8753 45.2837 54.7486 46.3691C56.2082 48.203 57.7427 49.8622 59.7263 51.1721C62.0342 52.6941 64.6166 54.029 67.3862 54.4781C68.6337 54.6777 69.7939 54.6403 70.9417 54.4781L72.526 46.5188C69.3323 48.3402 65.4525 48.6396 61.8596 46.7933H61.8471Z" fill="#FADED3"/>
</g>
<path d="M26.1801 28.4064C26.1801 28.4064 25.993 29.0302 25.7684 30.1155C25.5439 31.2009 25.2694 32.7603 25.232 34.6067C25.232 35.5299 25.232 36.5029 25.4191 37.5134C25.6063 38.5115 25.8308 39.5469 26.2924 40.52C26.754 41.4931 27.3154 42.4287 28.0764 43.2646L28.6752 43.8884C28.8249 44.0381 29.0619 44.2252 29.2865 44.3874C29.7231 44.7367 30.2097 45.0486 30.7087 45.323C32.7172 46.4084 35.0376 46.7951 37.1585 46.371C38.2189 46.1713 39.2418 45.8345 40.1775 45.3729C41.1007 44.9113 41.974 44.4373 42.7225 43.8884C43.4835 43.3519 44.1696 42.8404 44.7435 42.3289C45.3423 41.8424 45.8288 41.3808 46.2405 41.0066C47.0514 40.2331 47.513 39.7964 47.513 39.7964C47.513 39.7964 47.2011 40.3578 46.5898 41.306C46.253 41.7551 45.8912 42.3539 45.3797 42.9527C44.8807 43.564 44.2944 44.2626 43.5708 44.9238C42.1486 46.2836 40.19 47.7183 37.6325 48.4294C36.36 48.7662 34.9753 48.8785 33.578 48.7413C32.1808 48.6041 30.8085 48.13 29.5609 47.4937C28.9372 47.1694 28.3384 46.7951 27.7645 46.371C27.4776 46.1464 27.2281 45.9343 26.9286 45.6349L26.23 44.8864C25.3318 43.826 24.6082 42.6283 24.1591 41.3808C23.2484 38.8857 23.3108 36.3907 23.6975 34.4445C24.0843 32.4734 24.733 30.9514 25.2569 29.9409C25.7809 28.9304 26.1801 28.4064 26.1801 28.4064Z" fill="#EE7977"/>
<path d="M36.4473 38.3856C36.4473 39.7704 35.3744 40.8807 34.052 40.8807C32.7296 40.8807 31.6567 39.7704 31.6567 38.3856C31.6567 37.0008 32.7296 35.8905 34.052 35.8905C35.3744 35.8905 36.4473 37.0133 36.4473 38.3856Z" fill="#EBA98C"/>
<path d="M34.975 38.386C34.975 38.8975 34.5633 39.3092 34.0518 39.3092C33.5403 39.3092 33.1286 38.8975 33.1286 38.386C33.1286 37.8745 33.5403 37.4628 34.0518 37.4628C34.5633 37.4628 34.975 37.8745 34.975 38.386Z" fill="#DFA186"/>
<path d="M49.5588 44.6769C49.5588 52.7859 49.8208 60.8949 49.8208 69.0039C49.8208 69.8024 51.0684 69.8024 51.0684 69.0039C51.0684 60.8949 50.8064 52.7859 50.8064 44.6769C50.8064 43.8785 49.5588 43.8785 49.5588 44.6769Z" fill="#EBA98C"/>
<path d="M28.6254 6.02205C28.6254 6.02205 28.7626 5.71017 29.2492 5.32343C29.7232 4.9367 30.6215 4.59985 31.6694 4.5749C32.7173 4.525 33.9025 4.69967 35.1126 4.97412C35.7114 5.11135 36.3352 5.24857 36.934 5.41075C37.5453 5.56046 38.1815 5.72264 38.8053 5.88482C40.0778 6.23413 41.3378 6.6583 42.4855 7.15732C43.6333 7.65633 44.6687 8.23019 45.4921 8.84148C46.3155 9.45277 46.9143 10.1389 47.1389 10.7253C47.3884 11.3116 47.2262 11.6734 47.2511 11.6609C47.2511 11.6609 47.2262 11.5861 47.1763 11.4364C47.1264 11.2991 47.0016 11.112 46.827 10.9124C46.4652 10.5132 45.804 10.114 44.9557 9.7522C44.0949 9.39041 43.0594 9.02862 41.9117 8.67931C40.7764 8.34248 39.5538 7.99316 38.3188 7.68128C37.0837 7.36939 35.7738 6.97018 34.651 6.58344C33.5157 6.20918 32.4803 5.85987 31.5821 5.67274C30.6838 5.48561 29.9353 5.49809 29.4113 5.67274C28.8874 5.82245 28.6129 6.03452 28.6129 6.03452L28.6254 6.02205Z" fill="#EBA98C"/>
<path d="M71.2412 6.02288C71.2412 6.02288 70.9668 5.81081 70.4428 5.66111C69.9189 5.49893 69.1703 5.48645 68.2721 5.66111C67.3739 5.84824 66.3384 6.19754 65.2032 6.5718C64.0804 6.97102 62.7829 7.35776 61.5354 7.66964C60.3003 7.98153 59.0777 8.33082 57.9425 8.66766C56.8072 9.01697 55.7593 9.36628 54.8985 9.74054C54.0377 10.1148 53.389 10.514 53.0272 10.9008C52.8525 11.1004 52.7278 11.2875 52.6779 11.4247C52.628 11.5744 52.603 11.6493 52.603 11.6493C52.628 11.6493 52.4658 11.3 52.7153 10.7136C52.9523 10.1273 53.5387 9.44114 54.3621 8.82984C55.1854 8.20608 56.2209 7.6447 57.3686 7.14568C58.5164 6.64667 59.7764 6.2225 61.0489 5.87319C61.6726 5.71101 62.2964 5.5613 62.9202 5.39912C63.5315 5.23694 64.1428 5.08724 64.754 4.96249C65.9517 4.68803 67.1493 4.51337 68.1973 4.56327C69.2452 4.58822 70.1434 4.92506 70.6175 5.3118C71.104 5.68606 71.2412 6.02289 71.2412 6.01042V6.02288Z" fill="#EBA98C"/>
<path d="M1.30388 49.9028L-3.00012 56.7144L21.3269 90.6848L23.3104 85.3828L11.2842 52.1983C11.2842 52.1983 6.13185 46.0479 1.30388 49.9028Z" fill="#F8BFA2"/>
</g>
<defs>
<filter id="filter0_d_2_365" x="0" y="0" width="75" height="75" filterUnits="userSpaceOnUse" color-interpolation-filters="sRGB">
<feFlood flood-opacity="0" result="BackgroundImageFix"/>
<feColorMatrix in="SourceAlpha" type="matrix" values="0 0 0 0 0 0 0 0 0 0 0 0 0 0 0 0 0 0 127 0" result="hardAlpha"/>
<feOffset dy="4"/>
<feGaussianBlur stdDeviation="7"/>
<feComposite in2="hardAlpha" operator="out"/>
<feColorMatrix type="matrix" values="0 0 0 0 0.870588 0 0 0 0 0.662745 0 0 0 0 0.415686 0 0 0 0.2 0"/>
<feBlend mode="normal" in2="BackgroundImageFix" result="effect1_dropShadow_2_365"/>
<feBlend mode="normal" in="SourceGraphic" in2="effect1_dropShadow_2_365" result="shape"/>
</filter>
</defs>
</svg>
