<svg width="80" height="80" viewBox="0 0 80 80" fill="none" xmlns="http://www.w3.org/2000/svg">
<mask id="mask0_2_408" style="mask-type:luminance" maskUnits="userSpaceOnUse" x="-1" y="-1" width="48" height="49">
<path d="M46.9999 23.503C46.9999 36.4823 36.4759 47.0062 23.4967 47.0062C10.5174 47.0062 -0.00012207 36.4823 -0.00012207 23.503C-0.00012207 10.5237 10.5238 -0.000213623 23.4967 -0.000213623C36.4695 -0.000213623 46.9999 10.5237 46.9999 23.503Z" fill="white"/>
</mask>
<g mask="url(#mask0_2_408)">
<path d="M49.7132 34.2318C50.7379 32.7044 51.6208 31.119 52.3812 29.4821V26.5048L40.2462 -1.31631H25.8878C25.7589 -0.890975 25.63 -0.446302 25.5204 0.043483L46.0656 38.788C47.3996 37.3702 48.6241 35.8558 49.7197 34.2318H49.7132Z" fill="#F8BFA2"/>
<path d="M38.0292 -1.31647H-1.76578V38.6461C0.876482 42.4419 5.32321 45.0133 9.35105 47.0691C10.2726 47.5396 11.2071 47.9907 12.148 48.4289H26.0488C26.094 47.6749 26.1777 47.2302 26.1777 47.2302L29.6578 29.772C35.9219 23.6432 31.1594 14.2278 31.1594 14.2278C29.7931 9.47169 35.6641 9.95503 35.6641 9.95503C37.8423 8.099 36.6437 5.68875 36.6437 5.68875C36.6437 5.68875 37.9841 2.17003 38.0228 -1.31647H38.0292Z" fill="#F8BFA2"/>
<path d="M49.7132 34.2323C50.3899 33.2205 51.0021 32.1829 51.5628 31.1196C47.8572 30.4944 45.086 33.5814 45.086 33.5814L39.3568 44.6273C43.346 41.7401 46.9614 38.3374 49.7196 34.2258L49.7132 34.2323Z" fill="#F8BFA2"/>
<path d="M-0.59286 30.855C-0.59286 30.855 -0.283527 30.3781 0.283592 29.7981C0.425372 29.6499 0.573601 29.4952 0.741159 29.3405C0.915161 29.1923 1.0505 28.999 1.21805 28.8249C1.54028 28.4705 1.90117 28.1225 2.27496 27.7938C2.62941 27.42 2.99675 27.0592 3.36408 26.7369C3.54453 26.5758 3.73786 26.434 3.89898 26.2794C4.06654 26.1247 4.22765 25.9894 4.38232 25.8605C4.99455 25.3513 5.49722 25.0742 5.49722 25.0742C5.49722 25.0742 5.33611 25.6156 4.94944 26.3374C4.85277 26.5178 4.74966 26.7176 4.62721 26.9174C4.51121 27.1236 4.35654 27.3105 4.20187 27.5103C3.89253 27.9098 3.53808 28.3223 3.1643 28.7154C2.74541 29.0827 2.31362 29.4307 1.89473 29.7336C1.68206 29.8754 1.48872 30.043 1.27605 30.1332C1.06983 30.2363 0.870047 30.3201 0.683155 30.4039C-0.0515218 30.7325 -0.612198 30.855 -0.612198 30.855H-0.59286Z" fill="#EBA98C"/>
<path d="M31.3075 14.9751C31.3075 14.9751 31.6619 15.4649 32.1195 16.4123C32.577 17.3596 33.1442 18.7839 33.4342 20.6077C33.5824 21.5163 33.6211 22.5281 33.5308 23.5979C33.4406 24.6677 33.1506 25.7891 32.6866 26.8782C32.229 27.9738 31.5008 28.992 30.663 29.8942C29.8123 30.8416 28.7425 31.544 27.6147 32.0983C26.4805 32.6461 25.2432 33.0198 23.9994 33.1165C22.7556 33.239 21.5182 33.0907 20.384 32.7814C19.2497 32.4592 18.2251 31.9758 17.3164 31.4345C16.4206 30.8674 15.6279 30.268 14.9577 29.6558C14.2746 29.05 13.7074 28.4442 13.2241 27.89C12.7214 27.3551 12.3605 26.8202 12.0319 26.4142C11.4196 25.5571 11.091 25.0608 11.091 25.0608C11.091 25.0608 11.497 25.4991 12.2123 26.2595C12.5861 26.6204 13.0114 27.0909 13.5528 27.5678C14.0748 28.064 14.6999 28.586 15.3959 29.1209C16.0855 29.6687 16.8975 30.1649 17.7675 30.6418C18.6504 31.0994 19.6171 31.4925 20.6546 31.718C21.6858 31.9565 22.7878 32.0532 23.8769 31.9049C24.966 31.7696 26.0552 31.4538 27.0605 30.9511C28.0594 30.442 29.0068 29.7976 29.7414 29.0049C30.5148 28.2058 31.1399 27.31 31.5975 26.3626C32.0615 25.4153 32.3386 24.4228 32.4997 23.4626C32.6544 22.4959 32.6608 21.555 32.6222 20.685C32.5126 18.945 32.1453 17.5014 31.8488 16.5089C31.5459 15.5165 31.3075 14.9622 31.3075 14.9622V14.9751Z" fill="#EBA98C"/>
<path d="M25.849 23.7268C25.849 25.0415 24.8307 26.1048 23.5676 26.1048C22.3045 26.1048 21.2863 25.0415 21.2863 23.7268C21.2863 22.4121 22.3109 21.3488 23.5676 21.3488C24.8243 21.3488 25.849 22.4121 25.849 23.7268Z" fill="#EBA98C"/>
<path d="M24.4504 23.7277C24.4504 24.2175 24.0573 24.6106 23.5675 24.6106C23.0777 24.6106 22.6846 24.2175 22.6846 23.7277C22.6846 23.238 23.0841 22.8448 23.5675 22.8448C24.0508 22.8448 24.4504 23.238 24.4504 23.7277Z" fill="#DFA186"/>
<path d="M7.40474 29.7204C7.40474 34.8502 7.55297 39.9801 7.62386 45.1099C7.63675 45.9413 8.92565 45.9413 8.91276 45.1099C8.84187 39.9801 8.70009 34.8502 8.69365 29.7204C8.69365 28.889 7.40474 28.889 7.40474 29.7204Z" fill="#EBA98C"/>
</g>
</svg>
