<svg width="85" height="85" viewBox="0 0 85 85" fill="none" xmlns="http://www.w3.org/2000/svg">
<g filter="url(#filter0_d_2_572)">
<path d="M69.9749 39.5H70V38.5C70 23.3135 57.6865 11 42.5 11C27.3135 11 15 23.3135 15 38.5C15 53.6861 27.3059 66 42.4927 66C57.3445 66 69.4485 54.2234 69.9749 39.5Z" stroke="#DEA96A" stroke-width="2" stroke-miterlimit="10" shape-rendering="crispEdges"/>
</g>
<path opacity="0.6" d="M65.9935 38.5C65.9935 51.4775 55.4711 62 42.4936 62C29.516 62 19 51.4775 19 38.5C19 25.5225 29.5225 15 42.5 15C55.4775 15 66 25.5225 66 38.5H65.9935Z" fill="#DEA96A"/>
<path fill-rule="evenodd" clip-rule="evenodd" d="M32 38.7938C32 38.3727 32.164 37.9494 32.4965 37.6291C33.1571 36.9887 34.222 36.9909 34.8781 37.6335L39.3503 42.0257L50.1202 31.4834C50.7763 30.8407 51.8435 30.8385 52.504 31.479C53.1668 32.1194 53.1623 33.159 52.5085 33.8039L40.5433 45.5175C40.2265 45.8267 39.7974 46 39.3503 46C38.901 46 38.4718 45.8267 38.1551 45.5175L32.492 39.954C32.164 39.6338 32 39.2127 32 38.7938Z" fill="white"/>
<defs>
<filter id="filter0_d_2_572" x="0" y="0" width="85" height="85" filterUnits="userSpaceOnUse" color-interpolation-filters="sRGB">
<feFlood flood-opacity="0" result="BackgroundImageFix"/>
<feColorMatrix in="SourceAlpha" type="matrix" values="0 0 0 0 0 0 0 0 0 0 0 0 0 0 0 0 0 0 127 0" result="hardAlpha"/>
<feOffset dy="4"/>
<feGaussianBlur stdDeviation="7"/>
<feComposite in2="hardAlpha" operator="out"/>
<feColorMatrix type="matrix" values="0 0 0 0 0.870588 0 0 0 0 0.662745 0 0 0 0 0.415686 0 0 0 0.2 0"/>
<feBlend mode="normal" in2="BackgroundImageFix" result="effect1_dropShadow_2_572"/>
<feBlend mode="normal" in="SourceGraphic" in2="effect1_dropShadow_2_572" result="shape"/>
</filter>
</defs>
</svg>
